<?xml version="1.0" encoding="UTF-8"?><svg id="Ebene_2" xmlns="http://www.w3.org/2000/svg" viewBox="0 0 170.91 55.58"><g id="Ebene_1-2"><path d="M3.17,45.84c-.8,0-1.58,.46-2.24,1.01l.03-1.27v-2.81H.37v9.71H.87l.07-.61h.03c.61,.47,1.32,.77,1.94,.77,1.53,0,2.86-1.3,2.86-3.5,0-2.01-.86-3.31-2.59-3.31Zm-.3,6.28c-.5,0-1.2-.23-1.92-.84v-3.85c.77-.69,1.47-1.07,2.12-1.07,1.49,0,2.05,1.19,2.05,2.78,0,1.76-.95,2.97-2.26,2.97Zm8.65-6.12h.61l-2.57,7.29c-.36,1.08-1.01,2.15-2.17,2.15-.24,0-.49-.05-.66-.13l.13-.53c.14,.05,.34,.11,.53,.11,.8,0,1.34-.73,1.66-1.71l.18-.57-2.66-6.6h.65l1.57,4.08c.2,.54,.46,1.24,.7,1.81h.05c.2-.57,.42-1.27,.59-1.81l1.39-4.08Zm7.36,5.92l.16,.49c-.38,.13-.78,.24-1.05,.24-1.26,0-1.62-.8-1.62-1.96v-4.17h-1.01v-.46l1.03-.05,.08-1.88h.51v1.88h1.88v.51h-1.88v4.23c0,.82,.2,1.38,1.09,1.38,.24,0,.58-.09,.81-.2Zm6.35-3.59v4.16h-.59v-4.08c0-1.38-.43-2.03-1.49-2.03-.77,0-1.32,.41-2.12,1.21v4.89h-.59v-9.71h.59v4.24c.68-.68,1.35-1.17,2.24-1.17,1.34,0,1.96,.81,1.96,2.48Zm4.62-2.48c-1.44,0-2.82,1.3-2.82,3.42s1.34,3.39,3,3.39c.95,0,1.53-.32,2.04-.63l-.24-.46c-.49,.35-1.04,.58-1.74,.58-1.46,0-2.42-1.17-2.44-2.81h4.67c.03-.16,.03-.32,.03-.49,0-1.9-.95-3-2.48-3Zm-2.21,3.02c.13-1.55,1.12-2.51,2.23-2.51s1.9,.85,1.9,2.51h-4.13Zm14.54-5.28h.62v8.9h-.62v-4.46h-4.75v4.46h-.62v-8.9h.62v3.9h4.75v-3.9Zm3.16,0h4.85v.54h-4.23v3.54h3.56v.54h-3.56v4.28h-.62v-8.9Zm6.14,8.45c0,.38-.27,.61-.57,.61s-.58-.23-.58-.61,.28-.62,.58-.62,.57,.23,.57,.62Zm4.32-6.2c-1.45,0-2.82,1.3-2.82,3.42s1.34,3.39,3,3.39c.95,0,1.53-.32,2.04-.63l-.24-.46c-.49,.35-1.04,.58-1.74,.58-1.46,0-2.42-1.17-2.44-2.81h4.67c.03-.16,.03-.32,.03-.49,0-1.9-.95-3-2.48-3Zm-2.21,3.02c.13-1.55,1.12-2.51,2.23-2.51s1.9,.85,1.9,2.51h-4.13Zm8.24,.28l2.2,3.34h-.66l-1.15-1.77c-.24-.41-.5-.81-.77-1.19h-.05c-.26,.38-.49,.78-.74,1.19l-1.11,1.77h-.63l2.2-3.39-2.03-3.09h.66l1.05,1.65c.22,.35,.45,.71,.69,1.07h.05c.23-.35,.43-.72,.66-1.07l1.01-1.65h.62l-2.01,3.15Zm5.78-3.31c-1.55,0-2.9,1.24-2.9,3.42s1.35,3.39,2.9,3.39,2.92-1.24,2.92-3.39-1.35-3.42-2.92-3.42Zm0,6.28c-1.31,0-2.28-1.16-2.28-2.86s.97-2.89,2.28-2.89,2.3,1.17,2.3,2.89-.99,2.86-2.3,2.86Zm10.35-6.28c-.8,0-1.57,.47-2.2,.97h-.04l-.05-.81h-.51v9.41h.59v-3.57c.67,.5,1.34,.8,1.94,.8,1.53,0,2.86-1.3,2.86-3.5,0-2.01-.86-3.31-2.59-3.31Zm-.3,6.28c-.5,0-1.17-.23-1.92-.84v-3.85c.78-.69,1.47-1.07,2.12-1.07,1.49,0,2.05,1.19,2.05,2.78,0,1.76-.95,2.97-2.26,2.97Zm7.28-6.28c.24,0,.43,.03,.65,.13l-.13,.54c-.22-.08-.34-.11-.59-.11-.58,0-1.27,.45-1.77,1.66v4.42h-.59v-6.48h.51l.05,1.2h.04c.43-.8,1.07-1.36,1.84-1.36Zm4.08,0c-1.55,0-2.9,1.24-2.9,3.42s1.35,3.39,2.9,3.39,2.92-1.24,2.92-3.39-1.35-3.42-2.92-3.42Zm0,6.28c-1.31,0-2.28-1.16-2.28-2.86s.97-2.89,2.28-2.89,2.3,1.17,2.3,2.89-.99,2.86-2.3,2.86Zm5.72-8.21c0,.31-.26,.53-.55,.53s-.54-.22-.54-.53c0-.34,.26-.54,.54-.54s.55,.2,.55,.54Zm-.86,2.09h.61v7.68c0,1.27-.46,1.89-1.46,1.89-.31,0-.63-.08-.84-.16l.15-.49c.16,.05,.42,.13,.67,.13,.73,0,.86-.59,.86-1.42v-7.64Zm5.37-.16c-1.44,0-2.82,1.3-2.82,3.42s1.34,3.39,3,3.39c.95,0,1.53-.32,2.04-.63l-.24-.46c-.49,.35-1.04,.58-1.74,.58-1.46,0-2.42-1.17-2.44-2.81h4.67c.03-.16,.03-.32,.03-.49,0-1.9-.95-3-2.49-3Zm-2.21,3.02c.13-1.55,1.12-2.51,2.23-2.51s1.9,.85,1.9,2.51h-4.13Zm10.61,2.51l.31,.41c-.55,.5-1.24,.86-2.07,.86-1.67,0-2.94-1.24-2.94-3.39s1.38-3.42,2.96-3.42c.89,0,1.47,.39,1.9,.8l-.35,.42c-.42-.39-.9-.69-1.54-.69-1.32,0-2.35,1.17-2.35,2.89s.93,2.86,2.35,2.86c.69,0,1.28-.34,1.73-.74Zm4.72,1.03c-.38,.13-.78,.24-1.05,.24-1.26,0-1.62-.8-1.62-1.96v-4.17h-1.01v-.46l1.03-.05,.08-1.88h.51v1.88h1.88v.51h-1.88v4.23c0,.82,.2,1.38,1.09,1.38,.24,0,.58-.09,.81-.2l.16,.49ZM125.96,5.83v2.24h-23.1c-.82,0-2.13-.18-2.91-.4l-2.4-.67c-.79-.22-1.43,.27-1.43,1.09v5.36c0,.82,.67,1.48,1.48,1.48h28.36v15.27c0,2.6-2.13,4.72-4.72,4.72h-27.67c-2.6,0-4.72-2.13-4.72-4.72v-1.68h22.21c.82,0,2.13,.18,2.91,.4l2.4,.67c.79,.22,1.43-.27,1.43-1.09v-5.36c0-.82-.67-1.48-1.48-1.48h-27.46V5.83c0-2.6,2.13-4.72,4.72-4.72h27.67c2.6,0,4.72,2.13,4.72,4.72Zm-88.79-1.8v3.99H13.26c-.8,0-2.1-.18-2.87-.39l-2.37-.66c-.78-.22-1.41,.27-1.41,1.07v5.29c0,.8,.66,1.46,1.46,1.46h29.09v6.8H8.08c-.8,0-1.46,.66-1.46,1.46v5.29c0,.8,.63,1.29,1.41,1.07l2.37-.66c.78-.22,2.07-.39,2.87-.39h23.9v3.8c0,1.61-1.32,2.93-2.93,2.93H2.93c-1.61,0-2.93-1.32-2.93-2.93V4.03C0,2.42,1.32,1.1,2.93,1.1h31.32c1.61,0,2.93,1.32,2.93,2.93Zm103.19,4.01v5.29c0,.8,.66,1.46,1.46,1.46h29.09v6.8h-29.09c-.8,0-1.46,.66-1.46,1.46v5.29c0,.8,.63,1.29,1.41,1.07l2.37-.66c.78-.22,2.07-.39,2.87-.39h23.9v3.8c0,1.61-1.32,2.93-2.93,2.93h-31.32c-1.61,0-2.93-1.32-2.93-2.93V4.03c0-1.61,1.32-2.93,2.93-2.93h31.32c1.61,0,2.93,1.32,2.93,2.93v3.99h-23.9c-.8,0-2.1-.18-2.87-.39l-2.37-.66c-.78-.22-1.41,.27-1.41,1.07ZM66.39,1.98c-1.66-2.64-4.38-2.65-6.05-.02l-18.11,28.42c-1.67,2.63-.49,4.78,2.62,4.78h5.72v-2.59c0-.93,.76-1.7,1.7-1.7h21.85c.93,0,1.7,.76,1.7,1.7v2.59h5.73c3.11,0,4.31-2.16,2.65-4.8L66.39,1.98Zm3.7,21.81h-13.78c-1.21,0-1.65-.82-.98-1.83l6.66-10.08c.66-1.01,1.75-1.01,2.42,0l6.66,10.08c.66,1.01,.22,1.83-.98,1.83Z" style="fill:#1d1d1b;"/></g></svg>