<?xml version="1.0" encoding="UTF-8" standalone="no"?>
<svg
   width="100%"
   height="100%"
   viewBox="0 0 448 512"
   version="1.1"
   xml:space="preserve"
   style="fill-rule:evenodd;clip-rule:evenodd;stroke-linejoin:round;stroke-miterlimit:2;"
   id="svg1"
   sodipodi:docname="bars_dark.svg"
   inkscape:version="1.3.2 (091e20e, 2023-11-25, custom)"
   xmlns:inkscape="http://www.inkscape.org/namespaces/inkscape"
   xmlns:sodipodi="http://sodipodi.sourceforge.net/DTD/sodipodi-0.dtd"
   xmlns="http://www.w3.org/2000/svg"
   xmlns:svg="http://www.w3.org/2000/svg"><defs
   id="defs1" /><sodipodi:namedview
   id="namedview1"
   pagecolor="#ffffff"
   bordercolor="#000000"
   borderopacity="0.25"
   inkscape:showpageshadow="2"
   inkscape:pageopacity="0.0"
   inkscape:pagecheckerboard="0"
   inkscape:deskcolor="#d1d1d1"
   inkscape:zoom="2.2910156"
   inkscape:cx="224.1364"
   inkscape:cy="256"
   inkscape:window-width="2560"
   inkscape:window-height="1369"
   inkscape:window-x="-8"
   inkscape:window-y="-8"
   inkscape:window-maximized="1"
   inkscape:current-layer="svg1" />
    <path
   d="M0,96C0,78.3 14.3,64 32,64L416,64C433.7,64 448,78.3 448,96C448,113.7 433.7,128 416,128L32,128C14.3,128 0,113.7 0,96ZM0,256C0,238.3 14.3,224 32,224L416,224C433.7,224 448,238.3 448,256C448,273.7 433.7,288 416,288L32,288C14.3,288 0,273.7 0,256ZM448,416C448,433.7 433.7,448 416,448L32,448C14.3,448 0,433.7 0,416C0,398.3 14.3,384 32,384L416,384C433.7,384 448,398.3 448,416Z"
   style="fill:#004225;fill-rule:nonzero;fill-opacity:1"
   id="path1" />
</svg>
