<?xml version="1.0" encoding="UTF-8" standalone="no"?>
<!DOCTYPE svg PUBLIC "-//W3C//DTD SVG 1.1//EN" "http://www.w3.org/Graphics/SVG/1.1/DTD/svg11.dtd">
<svg width="100%" height="100%" viewBox="0 0 206 104" version="1.1" xmlns="http://www.w3.org/2000/svg" xmlns:xlink="http://www.w3.org/1999/xlink" xml:space="preserve" xmlns:serif="http://www.serif.com/" style="fill-rule:evenodd;clip-rule:evenodd;stroke-linejoin:round;stroke-miterlimit:2;">
    <g id="Artboard1" transform="matrix(1,0,0,1,18.8691,0)">
        <rect x="-18.869" y="0" width="205.374" height="103.044" style="fill:none;"/>
        <clipPath id="_clip1">
            <rect x="-18.869" y="0" width="205.374" height="103.044"/>
        </clipPath>
        <g clip-path="url(#_clip1)">
            <g transform="matrix(1.69047,0,0,-1.69047,-57.7424,140.234)">
                <g id="Name">
                    <path d="M67.748,80.117C67.748,79.831 67.712,79.582 67.641,79.367C67.57,79.153 67.472,78.969 67.349,78.814C67.226,78.659 67.084,78.534 66.921,78.439C66.758,78.344 66.59,78.273 66.415,78.225L66.415,78.201C66.629,78.161 66.83,78.086 67.016,77.975C67.203,77.864 67.365,77.725 67.504,77.559C67.643,77.392 67.754,77.196 67.837,76.97C67.921,76.743 67.962,76.495 67.962,76.226C67.962,75.9 67.907,75.603 67.796,75.333C67.685,75.064 67.512,74.829 67.278,74.631C67.044,74.433 66.748,74.278 66.391,74.167C66.034,74.056 65.61,74 65.118,74L63.44,74L63.44,82.211L65.023,82.211C65.507,82.211 65.921,82.162 66.266,82.063C66.612,81.964 66.895,81.823 67.117,81.64C67.339,81.458 67.5,81.238 67.599,80.98C67.698,80.722 67.748,80.434 67.748,80.117ZM66.701,80.081C66.701,80.462 66.566,80.775 66.296,81.021C66.027,81.267 65.602,81.39 65.023,81.39L64.475,81.39L64.475,78.558L65.011,78.558C65.566,78.558 65.987,78.693 66.272,78.963C66.558,79.232 66.701,79.605 66.701,80.081ZM66.856,76.297C66.856,76.741 66.711,77.092 66.421,77.35C66.132,77.608 65.717,77.737 65.178,77.737L64.476,77.737L64.476,74.857L65.118,74.857C65.729,74.857 66.171,74.978 66.445,75.22C66.719,75.462 66.856,75.821 66.856,76.297ZM73.234,74L72.353,74L72.353,74.643L72.33,74.643C72.306,74.595 72.254,74.526 72.175,74.435C72.096,74.343 71.994,74.256 71.871,74.173C71.748,74.09 71.6,74.016 71.425,73.953C71.251,73.889 71.056,73.858 70.842,73.858C70.588,73.858 70.36,73.895 70.158,73.971C69.956,74.046 69.783,74.167 69.64,74.334C69.497,74.5 69.388,74.716 69.313,74.982C69.238,75.248 69.2,75.575 69.2,75.964L69.2,79.712L70.164,79.712L70.164,76.035C70.164,75.559 70.241,75.22 70.396,75.018C70.551,74.816 70.79,74.714 71.116,74.714C71.393,74.714 71.627,74.784 71.818,74.923C72.008,75.062 72.159,75.198 72.27,75.333L72.27,79.712L73.234,79.712L73.234,74ZM77.827,74L77.827,77.678C77.827,78.161 77.746,78.509 77.583,78.719C77.421,78.929 77.173,79.034 76.84,79.034C76.554,79.034 76.316,78.963 76.126,78.82C75.935,78.677 75.785,78.538 75.673,78.403L75.673,74L74.71,74L74.71,79.712L75.59,79.712L75.59,79.07L75.614,79.07C75.638,79.117 75.689,79.187 75.769,79.278C75.848,79.369 75.951,79.457 76.078,79.54C76.205,79.623 76.356,79.696 76.53,79.76C76.705,79.823 76.903,79.855 77.125,79.855C77.379,79.855 77.609,79.817 77.815,79.742C78.022,79.667 78.196,79.546 78.339,79.379C78.482,79.213 78.593,78.996 78.672,78.731C78.752,78.465 78.791,78.138 78.791,77.749L78.791,74L77.827,74ZM79.969,76.773C79.969,77.352 80.045,77.836 80.195,78.225C80.346,78.614 80.541,78.927 80.779,79.165C81.017,79.403 81.286,79.572 81.588,79.671C81.889,79.77 82.191,79.82 82.492,79.82C82.675,79.82 82.833,79.806 82.968,79.778C83.103,79.75 83.214,79.716 83.301,79.677L83.301,82.414L84.265,82.521L84.265,74L83.385,74L83.385,74.607L83.361,74.607C83.337,74.56 83.293,74.494 83.23,74.411C83.166,74.328 83.079,74.244 82.968,74.161C82.857,74.078 82.718,74.006 82.552,73.947C82.385,73.887 82.191,73.858 81.969,73.858C81.699,73.858 81.443,73.911 81.201,74.018C80.959,74.125 80.747,74.296 80.564,74.53C80.382,74.764 80.237,75.066 80.13,75.434C80.023,75.803 79.969,76.25 79.969,76.773ZM82.23,74.714C82.381,74.714 82.516,74.734 82.635,74.774C82.754,74.814 82.857,74.863 82.944,74.923C83.032,74.982 83.105,75.044 83.165,75.107C83.224,75.171 83.27,75.226 83.301,75.274L83.301,78.796C83.214,78.852 83.113,78.899 82.998,78.939C82.883,78.979 82.738,78.998 82.564,78.998C82.341,78.998 82.133,78.961 81.939,78.885C81.744,78.81 81.576,78.685 81.433,78.51C81.29,78.336 81.177,78.11 81.094,77.832C81.011,77.555 80.969,77.213 80.969,76.809C80.969,76.412 81.003,76.081 81.07,75.815C81.138,75.549 81.231,75.335 81.35,75.173C81.469,75.01 81.604,74.893 81.754,74.822C81.905,74.75 82.064,74.714 82.23,74.714ZM89.406,77.785C89.406,77.539 89.398,77.327 89.382,77.148C89.366,76.97 89.351,76.813 89.335,76.678L86.419,76.678C86.451,76.004 86.596,75.508 86.854,75.19C87.111,74.873 87.482,74.714 87.966,74.714C88.133,74.714 88.283,74.734 88.418,74.774C88.553,74.814 88.67,74.861 88.769,74.917C88.869,74.972 88.952,75.028 89.019,75.083C89.087,75.139 89.136,75.182 89.168,75.214L89.525,74.536C89.485,74.496 89.426,74.439 89.347,74.363C89.267,74.288 89.16,74.213 89.025,74.137C88.89,74.062 88.724,73.996 88.525,73.941C88.327,73.885 88.093,73.858 87.823,73.858C87.466,73.858 87.143,73.917 86.854,74.036C86.564,74.155 86.318,74.34 86.116,74.59C85.913,74.839 85.757,75.157 85.646,75.542C85.535,75.926 85.479,76.388 85.479,76.928C85.479,77.436 85.537,77.874 85.652,78.243C85.767,78.612 85.923,78.915 86.122,79.153C86.32,79.391 86.55,79.568 86.812,79.683C87.074,79.798 87.355,79.855 87.657,79.855C88.204,79.855 88.633,79.683 88.942,79.338C89.251,78.993 89.406,78.475 89.406,77.785ZM87.597,79.07C87.256,79.07 86.982,78.927 86.776,78.641C86.57,78.356 86.451,77.943 86.419,77.404L88.502,77.404C88.51,77.444 88.516,77.501 88.519,77.576C88.523,77.652 88.525,77.733 88.525,77.82C88.525,78.217 88.446,78.524 88.287,78.743C88.129,78.961 87.899,79.07 87.597,79.07ZM93.155,78.558C93.091,78.629 92.976,78.727 92.809,78.85C92.643,78.973 92.425,79.034 92.155,79.034C91.901,79.034 91.707,78.975 91.572,78.856C91.437,78.737 91.37,78.594 91.37,78.427C91.37,78.213 91.431,78.037 91.554,77.898C91.677,77.759 91.865,77.61 92.119,77.451L92.476,77.237C92.865,77.007 93.17,76.759 93.393,76.494C93.615,76.228 93.726,75.885 93.726,75.464C93.726,75.012 93.569,74.631 93.256,74.322C92.942,74.012 92.492,73.858 91.905,73.858C91.675,73.858 91.473,73.881 91.298,73.929C91.124,73.977 90.971,74.032 90.84,74.096C90.709,74.159 90.6,74.229 90.513,74.304C90.425,74.379 90.354,74.449 90.299,74.512L90.763,75.274C90.81,75.226 90.868,75.171 90.935,75.107C91.003,75.044 91.084,74.982 91.179,74.923C91.274,74.863 91.381,74.814 91.5,74.774C91.619,74.734 91.758,74.714 91.917,74.714C92.203,74.714 92.421,74.778 92.571,74.905C92.722,75.032 92.798,75.186 92.798,75.369C92.798,75.504 92.78,75.621 92.744,75.72C92.708,75.819 92.655,75.908 92.583,75.988C92.512,76.067 92.425,76.142 92.322,76.214C92.218,76.285 92.099,76.365 91.965,76.452L91.608,76.678C91.251,76.908 90.971,77.15 90.769,77.404C90.566,77.658 90.465,77.983 90.465,78.38C90.465,78.594 90.507,78.79 90.59,78.969C90.673,79.147 90.79,79.302 90.941,79.433C91.092,79.564 91.268,79.667 91.471,79.742C91.673,79.818 91.889,79.855 92.119,79.855C92.341,79.855 92.532,79.833 92.69,79.79C92.849,79.746 92.986,79.691 93.101,79.623C93.216,79.556 93.311,79.488 93.387,79.421C93.462,79.353 93.523,79.296 93.571,79.248L93.155,78.558ZM97.855,74L97.855,77.678C97.855,78.146 97.788,78.483 97.653,78.689C97.518,78.895 97.3,78.998 96.998,78.998C96.84,78.998 96.699,78.979 96.576,78.939C96.453,78.899 96.344,78.85 96.249,78.79C96.153,78.731 96.07,78.665 95.999,78.594C95.927,78.522 95.868,78.459 95.82,78.403L95.82,74L94.856,74L94.856,79.712L95.737,79.712L95.737,79.07L95.761,79.07C95.8,79.133 95.86,79.211 95.939,79.302C96.018,79.393 96.118,79.48 96.237,79.564C96.356,79.647 96.494,79.716 96.653,79.772C96.812,79.827 96.99,79.855 97.189,79.855C97.839,79.855 98.299,79.601 98.569,79.094C98.625,79.173 98.7,79.258 98.795,79.349C98.89,79.441 99.001,79.524 99.128,79.599C99.255,79.675 99.398,79.736 99.557,79.784C99.715,79.831 99.89,79.855 100.08,79.855C101.239,79.855 101.818,79.181 101.818,77.832L101.818,74L100.854,74L100.854,77.677C100.854,78.146 100.771,78.483 100.604,78.689C100.437,78.895 100.191,78.998 99.866,78.998C99.596,78.998 99.372,78.933 99.194,78.802C99.015,78.671 98.874,78.546 98.771,78.427C98.787,78.34 98.799,78.247 98.807,78.147C98.815,78.048 98.819,77.943 98.819,77.832L98.819,74L97.855,74ZM104.222,74L103.258,74L103.258,79.712L104.222,79.712L104.222,74ZM103.746,81.093C103.547,81.093 103.389,81.156 103.27,81.283C103.151,81.41 103.091,81.577 103.091,81.783C103.091,81.981 103.151,82.144 103.27,82.271C103.389,82.398 103.547,82.461 103.746,82.461C103.936,82.461 104.091,82.398 104.21,82.271C104.329,82.144 104.388,81.981 104.388,81.783C104.388,81.577 104.329,81.41 104.21,81.283C104.091,81.156 103.936,81.093 103.746,81.093ZM108.815,74L108.815,77.678C108.815,78.161 108.734,78.509 108.571,78.719C108.408,78.929 108.16,79.034 107.827,79.034C107.542,79.034 107.304,78.963 107.113,78.82C106.923,78.677 106.772,78.538 106.661,78.403L106.661,74L105.697,74L105.697,79.712L106.578,79.712L106.578,79.07L106.602,79.07C106.625,79.117 106.677,79.187 106.756,79.278C106.836,79.369 106.939,79.457 107.066,79.54C107.193,79.623 107.343,79.696 107.518,79.76C107.692,79.823 107.891,79.855 108.113,79.855C108.367,79.855 108.597,79.817 108.803,79.742C109.009,79.667 109.184,79.546 109.327,79.379C109.469,79.213 109.581,78.996 109.66,78.731C109.739,78.465 109.779,78.138 109.779,77.749L109.779,74L108.815,74ZM112.183,74L111.219,74L111.219,79.712L112.183,79.712L112.183,74ZM111.707,81.093C111.508,81.093 111.35,81.156 111.231,81.283C111.112,81.41 111.052,81.577 111.052,81.783C111.052,81.981 111.112,82.144 111.231,82.271C111.35,82.398 111.508,82.461 111.707,82.461C111.897,82.461 112.052,82.398 112.171,82.271C112.29,82.144 112.349,81.981 112.349,81.783C112.349,81.577 112.29,81.41 112.171,81.283C112.052,81.156 111.897,81.093 111.707,81.093ZM116.122,78.558C116.058,78.629 115.943,78.727 115.776,78.85C115.61,78.973 115.392,79.034 115.122,79.034C114.868,79.034 114.674,78.975 114.539,78.856C114.404,78.737 114.337,78.594 114.337,78.427C114.337,78.213 114.398,78.037 114.521,77.898C114.644,77.759 114.832,77.61 115.086,77.451L115.443,77.237C115.832,77.007 116.137,76.759 116.36,76.494C116.582,76.228 116.693,75.885 116.693,75.464C116.693,75.012 116.536,74.631 116.223,74.322C115.909,74.012 115.459,73.858 114.872,73.858C114.642,73.858 114.44,73.881 114.265,73.929C114.091,73.977 113.938,74.032 113.807,74.096C113.676,74.159 113.567,74.229 113.48,74.304C113.392,74.379 113.321,74.449 113.266,74.512L113.73,75.274C113.777,75.226 113.835,75.171 113.902,75.107C113.97,75.044 114.051,74.982 114.146,74.923C114.241,74.863 114.348,74.814 114.467,74.774C114.586,74.734 114.725,74.714 114.884,74.714C115.17,74.714 115.388,74.778 115.538,74.905C115.689,75.032 115.765,75.186 115.765,75.369C115.765,75.504 115.747,75.621 115.711,75.72C115.675,75.819 115.622,75.908 115.55,75.988C115.479,76.067 115.392,76.142 115.289,76.214C115.185,76.285 115.066,76.365 114.932,76.452L114.575,76.678C114.218,76.908 113.938,77.15 113.736,77.404C113.533,77.658 113.432,77.983 113.432,78.38C113.432,78.594 113.474,78.79 113.557,78.969C113.64,79.147 113.757,79.302 113.908,79.433C114.059,79.564 114.235,79.667 114.438,79.742C114.64,79.818 114.856,79.855 115.086,79.855C115.308,79.855 115.499,79.833 115.657,79.79C115.816,79.746 115.953,79.691 116.068,79.623C116.183,79.556 116.278,79.488 116.354,79.421C116.429,79.353 116.49,79.296 116.538,79.248L116.122,78.558ZM120.263,78.927L119.013,78.927L119.013,75.762C119.013,75.357 119.065,75.081 119.168,74.935C119.271,74.788 119.446,74.714 119.692,74.714C119.834,74.714 119.957,74.734 120.06,74.774C120.164,74.814 120.239,74.849 120.287,74.881L120.417,74.107C120.378,74.076 120.283,74.026 120.132,73.959C119.981,73.891 119.779,73.858 119.525,73.858C119.033,73.858 118.664,73.994 118.418,74.268C118.172,74.542 118.049,74.996 118.049,75.631L118.049,78.927L117.359,78.927L117.359,79.57L118.049,79.712L118.156,81.307L119.013,81.307L119.013,79.712L120.382,79.712L120.263,78.927ZM124.939,77.785C124.939,77.539 124.932,77.327 124.916,77.148C124.9,76.97 124.884,76.813 124.868,76.678L121.953,76.678C121.984,76.004 122.129,75.508 122.387,75.19C122.645,74.873 123.016,74.714 123.5,74.714C123.666,74.714 123.817,74.734 123.952,74.774C124.087,74.814 124.204,74.861 124.303,74.917C124.402,74.972 124.485,75.028 124.553,75.083C124.62,75.139 124.67,75.182 124.701,75.214L125.058,74.536C125.019,74.496 124.959,74.439 124.88,74.363C124.801,74.288 124.694,74.213 124.559,74.137C124.424,74.062 124.257,73.996 124.059,73.941C123.861,73.885 123.626,73.858 123.357,73.858C123,73.858 122.676,73.917 122.387,74.036C122.097,74.155 121.851,74.34 121.649,74.59C121.447,74.839 121.29,75.157 121.179,75.542C121.068,75.926 121.012,76.388 121.012,76.928C121.012,77.436 121.07,77.874 121.185,78.243C121.3,78.612 121.457,78.915 121.655,79.153C121.853,79.391 122.083,79.568 122.345,79.683C122.607,79.798 122.889,79.855 123.19,79.855C123.738,79.855 124.166,79.683 124.475,79.338C124.785,78.993 124.939,78.475 124.939,77.785ZM123.131,79.07C122.79,79.07 122.516,78.927 122.31,78.641C122.103,78.356 121.984,77.943 121.953,77.404L124.035,77.404C124.043,77.444 124.049,77.501 124.053,77.576C124.057,77.652 124.059,77.733 124.059,77.82C124.059,78.217 123.979,78.524 123.821,78.743C123.662,78.961 123.432,79.07 123.131,79.07ZM128.736,78.868C128.712,78.883 128.66,78.903 128.581,78.927C128.502,78.951 128.394,78.963 128.26,78.963C127.958,78.963 127.722,78.881 127.552,78.719C127.381,78.556 127.26,78.38 127.189,78.189L127.189,74L126.225,74L126.225,79.712L127.105,79.712L127.105,78.939L127.129,78.939C127.169,79.05 127.22,79.159 127.284,79.266C127.347,79.373 127.427,79.469 127.522,79.552C127.617,79.635 127.73,79.701 127.861,79.748C127.992,79.796 128.148,79.82 128.331,79.82C128.466,79.82 128.575,79.808 128.658,79.784C128.742,79.76 128.807,79.74 128.855,79.724L128.736,78.867ZM130.651,74L129.688,74L129.688,79.712L130.651,79.712L130.651,74ZM130.175,81.093C129.977,81.093 129.818,81.156 129.699,81.283C129.58,81.41 129.521,81.577 129.521,81.783C129.521,81.981 129.58,82.144 129.699,82.271C129.818,82.398 129.977,82.461 130.175,82.461C130.366,82.461 130.521,82.398 130.64,82.271C130.759,82.144 130.818,81.981 130.818,81.783C130.818,81.577 130.759,81.41 130.64,81.283C130.521,81.156 130.366,81.093 130.175,81.093ZM136.125,74L135.245,74L135.245,74.643L135.221,74.643C135.197,74.595 135.146,74.526 135.066,74.435C134.987,74.344 134.886,74.256 134.763,74.173C134.64,74.09 134.491,74.016 134.317,73.953C134.142,73.889 133.948,73.858 133.734,73.858C133.48,73.858 133.252,73.895 133.049,73.971C132.847,74.046 132.674,74.167 132.532,74.334C132.389,74.5 132.28,74.716 132.204,74.982C132.129,75.248 132.091,75.575 132.091,75.964L132.091,79.712L133.055,79.712L133.055,76.035C133.055,75.559 133.133,75.22 133.287,75.018C133.442,74.816 133.682,74.714 134.007,74.714C134.285,74.714 134.519,74.784 134.709,74.923C134.9,75.062 135.05,75.198 135.162,75.333L135.162,79.712L136.125,79.712L136.125,74ZM140.6,74L140.6,77.678C140.6,78.146 140.532,78.483 140.397,78.689C140.263,78.895 140.044,78.998 139.743,78.998C139.584,78.998 139.443,78.979 139.321,78.939C139.198,78.899 139.088,78.85 138.993,78.79C138.898,78.731 138.815,78.665 138.743,78.594C138.672,78.522 138.612,78.459 138.565,78.403L138.565,74L137.601,74L137.601,79.712L138.482,79.712L138.482,79.07L138.505,79.07C138.545,79.133 138.605,79.211 138.684,79.302C138.763,79.393 138.862,79.48 138.981,79.564C139.1,79.647 139.239,79.716 139.398,79.772C139.557,79.827 139.735,79.855 139.933,79.855C140.584,79.855 141.044,79.601 141.314,79.094C141.369,79.173 141.445,79.258 141.54,79.349C141.635,79.441 141.746,79.524 141.873,79.599C142,79.675 142.143,79.736 142.302,79.784C142.46,79.831 142.635,79.855 142.825,79.855C143.983,79.855 144.563,79.181 144.563,77.832L144.563,74L143.599,74L143.599,77.677C143.599,78.146 143.515,78.483 143.349,78.689C143.182,78.895 142.936,78.998 142.611,78.998C142.341,78.998 142.117,78.933 141.939,78.802C141.76,78.671 141.619,78.546 141.516,78.427C141.532,78.34 141.544,78.247 141.552,78.147C141.56,78.048 141.564,77.943 141.564,77.832L141.564,74L140.6,74ZM65.642,66.927L64.476,66.927L64.476,62L63.512,62L63.512,66.927L62.821,66.927L62.821,67.57L63.512,67.701L63.512,68.843C63.512,69.152 63.555,69.418 63.643,69.64C63.73,69.862 63.845,70.045 63.988,70.188C64.13,70.33 64.297,70.434 64.487,70.497C64.678,70.56 64.88,70.592 65.094,70.592C65.301,70.592 65.475,70.564 65.618,70.509C65.761,70.453 65.856,70.41 65.904,70.378L65.701,69.581C65.654,69.612 65.586,69.646 65.499,69.682C65.412,69.718 65.305,69.735 65.178,69.735C64.948,69.735 64.773,69.664 64.654,69.521C64.535,69.378 64.476,69.117 64.476,68.736L64.476,67.712L65.761,67.712L65.642,66.927ZM70.592,62L69.712,62L69.712,62.643L69.688,62.643C69.664,62.595 69.612,62.526 69.533,62.435C69.454,62.344 69.353,62.256 69.23,62.173C69.107,62.09 68.958,62.016 68.783,61.953C68.609,61.889 68.415,61.858 68.2,61.858C67.946,61.858 67.718,61.895 67.516,61.971C67.314,62.046 67.141,62.167 66.998,62.334C66.856,62.5 66.746,62.716 66.671,62.982C66.596,63.248 66.558,63.575 66.558,63.964L66.558,67.712L67.522,67.712L67.522,64.035C67.522,63.559 67.599,63.22 67.754,63.018C67.909,62.816 68.149,62.714 68.474,62.714C68.752,62.714 68.986,62.784 69.176,62.923C69.366,63.062 69.517,63.198 69.628,63.333L69.628,67.712L70.592,67.712L70.592,62ZM68.224,69.355C68.224,69.172 68.169,69.025 68.057,68.914C67.946,68.803 67.812,68.748 67.653,68.748C67.494,68.748 67.359,68.803 67.248,68.914C67.137,69.025 67.082,69.172 67.082,69.355C67.082,69.537 67.137,69.684 67.248,69.795C67.359,69.906 67.494,69.962 67.653,69.962C67.812,69.962 67.946,69.906 68.057,69.795C68.169,69.684 68.224,69.537 68.224,69.355ZM70.057,69.355C70.057,69.172 70.001,69.025 69.89,68.914C69.779,68.803 69.644,68.748 69.485,68.748C69.327,68.748 69.192,68.803 69.081,68.914C68.97,69.025 68.914,69.172 68.914,69.355C68.914,69.537 68.97,69.684 69.081,69.795C69.192,69.906 69.327,69.962 69.485,69.962C69.644,69.962 69.779,69.906 69.89,69.795C70.001,69.684 70.057,69.537 70.057,69.355ZM74.579,66.868C74.555,66.883 74.503,66.903 74.424,66.927C74.345,66.951 74.238,66.963 74.103,66.963C73.801,66.963 73.565,66.881 73.395,66.719C73.224,66.556 73.103,66.38 73.032,66.189L73.032,62L72.068,62L72.068,67.712L72.948,67.712L72.948,66.939L72.972,66.939C73.012,67.05 73.063,67.159 73.127,67.266C73.19,67.373 73.27,67.469 73.365,67.552C73.46,67.635 73.573,67.701 73.704,67.748C73.835,67.796 73.992,67.82 74.174,67.82C74.309,67.82 74.418,67.808 74.501,67.784C74.585,67.76 74.65,67.74 74.698,67.724L74.579,66.867ZM86.003,70.211L84.004,62L83.075,62L81.826,67.165C81.739,67.522 81.663,67.855 81.6,68.165C81.536,68.474 81.501,68.72 81.493,68.902L81.469,68.902C81.469,68.72 81.437,68.478 81.374,68.177C81.31,67.875 81.235,67.546 81.147,67.189L79.874,62L78.946,62L76.994,70.211L78.101,70.211L79.124,65.213C79.204,64.833 79.273,64.474 79.333,64.137C79.392,63.799 79.426,63.54 79.434,63.357L79.458,63.357C79.466,63.54 79.507,63.805 79.583,64.154C79.658,64.503 79.739,64.864 79.827,65.237L81.04,70.211L82.028,70.211L83.218,65.213C83.305,64.833 83.385,64.474 83.456,64.137C83.527,63.799 83.567,63.54 83.575,63.357L83.599,63.357C83.607,63.54 83.642,63.807 83.706,64.16C83.769,64.513 83.841,64.88 83.92,65.261L84.955,70.211L86.003,70.211ZM87.859,62L86.895,62L86.895,67.712L87.859,67.712L87.859,62ZM87.383,69.093C87.185,69.093 87.026,69.156 86.907,69.283C86.788,69.41 86.729,69.577 86.729,69.783C86.729,69.981 86.788,70.144 86.907,70.271C87.026,70.398 87.185,70.461 87.383,70.461C87.574,70.461 87.728,70.398 87.847,70.271C87.966,70.144 88.026,69.981 88.026,69.783C88.026,69.577 87.966,69.41 87.847,69.283C87.728,69.156 87.574,69.093 87.383,69.093ZM91.846,66.868C91.822,66.883 91.77,66.903 91.691,66.927C91.612,66.951 91.504,66.963 91.37,66.963C91.068,66.963 90.832,66.881 90.662,66.719C90.491,66.556 90.37,66.38 90.299,66.189L90.299,62L89.335,62L89.335,67.712L90.215,67.712L90.215,66.939L90.239,66.939C90.279,67.05 90.33,67.159 90.394,67.266C90.457,67.373 90.537,67.469 90.632,67.552C90.727,67.635 90.84,67.701 90.971,67.748C91.102,67.796 91.259,67.82 91.441,67.82C91.576,67.82 91.685,67.808 91.768,67.784C91.852,67.76 91.917,67.74 91.965,67.724L91.846,66.867ZM95.237,66.927L93.988,66.927L93.988,63.762C93.988,63.357 94.039,63.081 94.142,62.935C94.245,62.788 94.42,62.714 94.666,62.714C94.809,62.714 94.932,62.734 95.035,62.774C95.138,62.814 95.213,62.849 95.261,62.881L95.392,62.108C95.352,62.076 95.257,62.026 95.106,61.959C94.956,61.891 94.753,61.858 94.499,61.858C94.007,61.858 93.639,61.994 93.393,62.268C93.147,62.542 93.024,62.996 93.024,63.631L93.024,66.927L92.334,66.927L92.334,67.57L93.024,67.712L93.131,69.307L93.988,69.307L93.988,67.712L95.356,67.712L95.237,66.927ZM98.795,66.558C98.732,66.63 98.617,66.727 98.45,66.85C98.283,66.973 98.065,67.034 97.796,67.034C97.542,67.034 97.347,66.975 97.212,66.856C97.078,66.737 97.01,66.594 97.01,66.427C97.01,66.213 97.072,66.037 97.195,65.898C97.318,65.759 97.506,65.61 97.76,65.451L98.117,65.237C98.506,65.007 98.811,64.759 99.033,64.494C99.255,64.228 99.366,63.885 99.366,63.464C99.366,63.012 99.21,62.631 98.896,62.322C98.583,62.012 98.133,61.858 97.546,61.858C97.316,61.858 97.113,61.881 96.939,61.929C96.764,61.977 96.612,62.032 96.481,62.096C96.35,62.159 96.241,62.229 96.153,62.304C96.066,62.379 95.995,62.449 95.939,62.512L96.403,63.274C96.451,63.226 96.508,63.171 96.576,63.107C96.643,63.044 96.725,62.982 96.82,62.923C96.915,62.863 97.022,62.814 97.141,62.774C97.26,62.734 97.399,62.714 97.558,62.714C97.843,62.714 98.061,62.778 98.212,62.905C98.363,63.032 98.438,63.186 98.438,63.369C98.438,63.504 98.42,63.621 98.385,63.72C98.349,63.819 98.295,63.908 98.224,63.988C98.153,64.067 98.065,64.142 97.962,64.214C97.859,64.285 97.74,64.365 97.605,64.452L97.248,64.678C96.891,64.908 96.612,65.15 96.409,65.404C96.207,65.658 96.106,65.983 96.106,66.38C96.106,66.594 96.148,66.79 96.231,66.969C96.314,67.147 96.431,67.302 96.582,67.433C96.733,67.564 96.909,67.667 97.111,67.742C97.314,67.818 97.53,67.855 97.76,67.855C97.982,67.855 98.172,67.833 98.331,67.79C98.49,67.746 98.627,67.691 98.742,67.623C98.857,67.556 98.952,67.488 99.027,67.421C99.103,67.353 99.164,67.296 99.212,67.248L98.795,66.558ZM103.674,66.606C103.65,66.63 103.613,66.665 103.561,66.713C103.51,66.76 103.444,66.808 103.365,66.856C103.286,66.903 103.19,66.945 103.079,66.981C102.968,67.016 102.841,67.034 102.698,67.034C102.492,67.034 102.3,66.996 102.121,66.921C101.943,66.846 101.788,66.725 101.657,66.558C101.526,66.392 101.423,66.175 101.348,65.91C101.272,65.644 101.235,65.321 101.235,64.94C101.235,64.519 101.268,64.166 101.336,63.881C101.403,63.595 101.497,63.367 101.616,63.196C101.735,63.026 101.879,62.903 102.05,62.828C102.22,62.752 102.409,62.714 102.615,62.714C102.909,62.714 103.133,62.766 103.288,62.869C103.442,62.972 103.551,63.056 103.615,63.119L104.007,62.453C103.968,62.405 103.91,62.348 103.835,62.28C103.76,62.213 103.662,62.147 103.543,62.084C103.424,62.02 103.28,61.967 103.109,61.923C102.938,61.879 102.742,61.858 102.52,61.858C102.203,61.858 101.905,61.909 101.627,62.012C101.35,62.115 101.108,62.286 100.902,62.524C100.695,62.762 100.533,63.071 100.414,63.452C100.295,63.833 100.235,64.305 100.235,64.868C100.235,65.416 100.307,65.88 100.449,66.261C100.592,66.641 100.779,66.949 101.009,67.183C101.239,67.417 101.495,67.588 101.776,67.695C102.058,67.802 102.341,67.855 102.627,67.855C102.841,67.855 103.03,67.835 103.192,67.796C103.355,67.756 103.494,67.707 103.609,67.647C103.724,67.588 103.819,67.524 103.894,67.457C103.97,67.389 104.031,67.332 104.079,67.284L103.674,66.606ZM108.208,62L108.208,65.678C108.208,66.161 108.127,66.509 107.964,66.719C107.802,66.929 107.554,67.034 107.22,67.034C106.935,67.034 106.697,66.963 106.506,66.82C106.316,66.677 106.165,66.538 106.054,66.403L106.054,62L105.09,62L105.09,70.414L106.054,70.521L106.054,67.129L106.078,67.129C106.11,67.177 106.159,67.24 106.227,67.32C106.294,67.399 106.387,67.478 106.506,67.558C106.625,67.637 106.77,67.707 106.941,67.766C107.111,67.826 107.312,67.855 107.542,67.855C108.041,67.855 108.438,67.693 108.732,67.367C109.025,67.042 109.172,66.503 109.172,65.749L109.172,62L108.208,62ZM110.279,63.452C110.279,63.785 110.342,64.063 110.469,64.285C110.596,64.507 110.767,64.688 110.981,64.827C111.195,64.966 111.447,65.065 111.737,65.124C112.026,65.184 112.333,65.213 112.659,65.213L112.956,65.213L112.956,65.761C112.956,66.245 112.871,66.578 112.7,66.76C112.53,66.943 112.29,67.034 111.98,67.034C111.695,67.034 111.457,66.973 111.266,66.85C111.076,66.727 110.925,66.618 110.814,66.522L110.41,67.165C110.473,67.229 110.554,67.3 110.654,67.379C110.753,67.459 110.874,67.534 111.017,67.605C111.159,67.677 111.322,67.736 111.504,67.784C111.687,67.831 111.893,67.855 112.123,67.855C112.71,67.855 113.155,67.693 113.456,67.367C113.758,67.042 113.908,66.518 113.908,65.797L113.908,63.19C113.908,62.945 113.916,62.705 113.932,62.471C113.948,62.236 113.964,62.08 113.98,62L113.063,62L113.028,62.631L113.004,62.631C112.972,62.56 112.924,62.478 112.861,62.387C112.798,62.296 112.718,62.213 112.623,62.137C112.528,62.062 112.413,61.996 112.278,61.941C112.143,61.885 111.984,61.858 111.802,61.858C111.588,61.858 111.387,61.897 111.201,61.977C111.015,62.056 110.852,62.167 110.713,62.31C110.574,62.453 110.467,62.621 110.392,62.816C110.316,63.01 110.279,63.222 110.279,63.452ZM112.004,62.679C112.139,62.679 112.258,62.699 112.361,62.738C112.464,62.778 112.554,62.826 112.629,62.881C112.704,62.937 112.768,62.998 112.819,63.066C112.871,63.133 112.916,63.19 112.956,63.238L112.956,64.499L112.647,64.488C112.187,64.472 111.838,64.392 111.6,64.25C111.362,64.107 111.243,63.877 111.243,63.559C111.243,63.266 111.31,63.046 111.445,62.899C111.58,62.752 111.766,62.679 112.004,62.679ZM117.764,66.927L116.598,66.927L116.598,62L115.634,62L115.634,66.927L114.944,66.927L114.944,67.57L115.634,67.701L115.634,68.843C115.634,69.152 115.677,69.418 115.765,69.64C115.852,69.862 115.967,70.045 116.11,70.188C116.253,70.33 116.419,70.434 116.61,70.497C116.8,70.561 117.002,70.592 117.216,70.592C117.423,70.592 117.597,70.564 117.74,70.509C117.883,70.453 117.978,70.41 118.026,70.378L117.823,69.581C117.776,69.612 117.708,69.646 117.621,69.682C117.534,69.718 117.427,69.735 117.3,69.735C117.07,69.735 116.895,69.664 116.776,69.521C116.657,69.378 116.598,69.117 116.598,68.736L116.598,67.712L117.883,67.712L117.764,66.927ZM121.155,66.927L119.906,66.927L119.906,63.762C119.906,63.357 119.957,63.081 120.061,62.935C120.164,62.788 120.338,62.714 120.584,62.714C120.727,62.714 120.85,62.734 120.953,62.774C121.056,62.814 121.132,62.849 121.179,62.881L121.31,62.108C121.27,62.076 121.175,62.026 121.024,61.959C120.874,61.891 120.671,61.858 120.418,61.858C119.926,61.858 119.557,61.994 119.311,62.268C119.065,62.542 118.942,62.996 118.942,63.631L118.942,66.927L118.252,66.927L118.252,67.57L118.942,67.712L119.049,69.307L119.906,69.307L119.906,67.712L121.274,67.712L121.155,66.927ZM67.236,50L66.356,50L66.356,50.643L66.332,50.643C66.308,50.595 66.257,50.526 66.177,50.434C66.098,50.343 65.997,50.256 65.874,50.173C65.751,50.089 65.602,50.016 65.428,49.952C65.253,49.889 65.059,49.857 64.844,49.857C64.591,49.857 64.363,49.895 64.16,49.97C63.958,50.046 63.785,50.167 63.643,50.333C63.5,50.5 63.391,50.716 63.315,50.982C63.24,51.248 63.202,51.575 63.202,51.964L63.202,55.712L64.166,55.712L64.166,52.035C64.166,51.559 64.243,51.22 64.398,51.017C64.553,50.815 64.793,50.714 65.118,50.714C65.396,50.714 65.63,50.783 65.82,50.922C66.011,51.061 66.161,51.198 66.272,51.333L66.272,55.712L67.236,55.712L67.236,50ZM71.83,50L71.83,53.677C71.83,54.161 71.748,54.508 71.586,54.718C71.423,54.929 71.175,55.034 70.842,55.034C70.556,55.034 70.318,54.962 70.128,54.82C69.938,54.677 69.787,54.538 69.676,54.403L69.676,50L68.712,50L68.712,55.712L69.593,55.712L69.593,55.069L69.616,55.069C69.64,55.117 69.692,55.186 69.771,55.278C69.85,55.369 69.954,55.456 70.08,55.54C70.207,55.623 70.358,55.696 70.533,55.76C70.707,55.823 70.906,55.855 71.128,55.855C71.382,55.855 71.612,55.817 71.818,55.742C72.024,55.666 72.199,55.545 72.341,55.379C72.484,55.212 72.595,54.996 72.675,54.73C72.754,54.465 72.794,54.137 72.794,53.749L72.794,50L71.83,50ZM73.972,52.773C73.972,53.352 74.047,53.836 74.198,54.225C74.349,54.613 74.543,54.927 74.781,55.165C75.019,55.403 75.289,55.571 75.59,55.67C75.892,55.77 76.193,55.819 76.495,55.819C76.677,55.819 76.836,55.805 76.971,55.777C77.105,55.75 77.216,55.716 77.304,55.676L77.304,58.413L78.268,58.52L78.268,50L77.387,50L77.387,50.607L77.363,50.607C77.339,50.559 77.296,50.494 77.232,50.411C77.169,50.327 77.082,50.244 76.971,50.161C76.859,50.077 76.721,50.006 76.554,49.946C76.387,49.887 76.193,49.857 75.971,49.857C75.701,49.857 75.445,49.911 75.203,50.018C74.961,50.125 74.749,50.296 74.567,50.53C74.384,50.764 74.24,51.065 74.132,51.434C74.025,51.803 73.972,52.249 73.972,52.773ZM76.233,50.714C76.383,50.714 76.518,50.734 76.637,50.774C76.756,50.813 76.859,50.863 76.947,50.922C77.034,50.982 77.107,51.043 77.167,51.107C77.226,51.17 77.272,51.226 77.304,51.273L77.304,54.796C77.216,54.851 77.115,54.899 77,54.939C76.885,54.978 76.74,54.998 76.566,54.998C76.344,54.998 76.135,54.96 75.941,54.885C75.747,54.81 75.578,54.685 75.435,54.51C75.293,54.336 75.18,54.11 75.096,53.832C75.013,53.554 74.971,53.213 74.971,52.808C74.971,52.412 75.005,52.081 75.073,51.815C75.14,51.549 75.233,51.335 75.352,51.172C75.471,51.01 75.606,50.893 75.757,50.821C75.907,50.75 76.066,50.714 76.233,50.714ZM84.991,54.201L87.776,50L86.502,50L84.122,53.737L83.504,53.737L83.504,50L82.468,50L82.468,58.211L83.504,58.211L83.504,54.558L84.134,54.558L86.431,58.211L87.585,58.211L84.991,54.201ZM89.477,51.333C89.477,51.095 89.511,50.928 89.579,50.833C89.646,50.738 89.763,50.69 89.93,50.69C90.017,50.69 90.09,50.698 90.15,50.714C90.209,50.73 90.255,50.746 90.287,50.762L90.37,50.048C90.322,50.024 90.235,49.992 90.108,49.952C89.981,49.913 89.811,49.893 89.596,49.893C89.271,49.893 89.009,49.992 88.811,50.19C88.613,50.389 88.513,50.742 88.513,51.25L88.513,58.413L89.477,58.52L89.477,51.333ZM92.202,50L91.239,50L91.239,55.712L92.202,55.712L92.202,50ZM91.726,57.092C91.528,57.092 91.369,57.156 91.25,57.283C91.131,57.41 91.072,57.576 91.072,57.783C91.072,57.981 91.131,58.144 91.25,58.271C91.369,58.397 91.528,58.461 91.726,58.461C91.917,58.461 92.072,58.397 92.191,58.271C92.31,58.144 92.369,57.981 92.369,57.783C92.369,57.576 92.31,57.41 92.191,57.283C92.072,57.156 91.917,57.092 91.726,57.092ZM96.677,50L96.677,53.677C96.677,54.145 96.609,54.482 96.475,54.689C96.34,54.895 96.122,54.998 95.82,54.998C95.661,54.998 95.521,54.978 95.398,54.939C95.275,54.899 95.166,54.849 95.07,54.79C94.975,54.73 94.892,54.665 94.821,54.593C94.749,54.522 94.69,54.459 94.642,54.403L94.642,50L93.678,50L93.678,55.712L94.559,55.712L94.559,55.069L94.583,55.069C94.622,55.133 94.682,55.21 94.761,55.301C94.84,55.393 94.94,55.48 95.059,55.563C95.178,55.647 95.316,55.716 95.475,55.772C95.634,55.827 95.812,55.855 96.011,55.855C96.661,55.855 97.121,55.601 97.391,55.093C97.446,55.173 97.522,55.258 97.617,55.349C97.712,55.44 97.823,55.524 97.95,55.599C98.077,55.674 98.22,55.736 98.379,55.783C98.537,55.831 98.712,55.855 98.902,55.855C100.061,55.855 100.64,55.181 100.64,53.832L100.64,50L99.676,50L99.676,53.677C99.676,54.145 99.592,54.482 99.426,54.689C99.259,54.895 99.013,54.998 98.688,54.998C98.418,54.998 98.194,54.933 98.016,54.802C97.837,54.671 97.696,54.546 97.593,54.427C97.609,54.34 97.621,54.246 97.629,54.147C97.637,54.048 97.641,53.943 97.641,53.832L97.641,50L96.677,50ZM101.746,51.452C101.746,51.785 101.81,52.063 101.937,52.285C102.064,52.507 102.234,52.687 102.448,52.826C102.663,52.965 102.914,53.064 103.204,53.124C103.494,53.183 103.801,53.213 104.126,53.213L104.424,53.213L104.424,53.76C104.424,54.244 104.339,54.578 104.168,54.76C103.997,54.943 103.757,55.034 103.448,55.034C103.162,55.034 102.924,54.972 102.734,54.849C102.544,54.726 102.393,54.617 102.282,54.522L101.877,55.165C101.941,55.228 102.022,55.3 102.121,55.379C102.22,55.458 102.341,55.534 102.484,55.605C102.627,55.676 102.79,55.736 102.972,55.783C103.154,55.831 103.361,55.855 103.591,55.855C104.178,55.855 104.622,55.692 104.924,55.367C105.225,55.042 105.376,54.518 105.376,53.796L105.376,51.19C105.376,50.944 105.384,50.704 105.4,50.47C105.415,50.236 105.431,50.079 105.447,50L104.531,50L104.495,50.631L104.471,50.631C104.44,50.559 104.392,50.478 104.329,50.387C104.265,50.296 104.186,50.212 104.091,50.137C103.995,50.062 103.88,49.996 103.745,49.941C103.611,49.885 103.452,49.857 103.269,49.857C103.055,49.857 102.855,49.897 102.669,49.976C102.482,50.056 102.319,50.167 102.181,50.309C102.042,50.452 101.935,50.621 101.859,50.815C101.784,51.01 101.746,51.222 101.746,51.452ZM103.472,50.678C103.607,50.678 103.726,50.698 103.829,50.738C103.932,50.778 104.021,50.825 104.097,50.881C104.172,50.936 104.235,50.998 104.287,51.065C104.338,51.133 104.384,51.19 104.424,51.238L104.424,52.499L104.114,52.487C103.654,52.471 103.305,52.392 103.067,52.249C102.829,52.106 102.71,51.876 102.71,51.559C102.71,51.265 102.778,51.045 102.912,50.899C103.047,50.752 103.234,50.678 103.472,50.678ZM109.291,54.558C109.227,54.629 109.112,54.726 108.946,54.849C108.779,54.972 108.561,55.034 108.291,55.034C108.037,55.034 107.843,54.974 107.708,54.855C107.573,54.736 107.506,54.593 107.506,54.427C107.506,54.213 107.567,54.036 107.69,53.897C107.813,53.758 108.002,53.61 108.256,53.451L108.613,53.237C109.001,53.007 109.307,52.759 109.529,52.493C109.751,52.227 109.862,51.884 109.862,51.464C109.862,51.012 109.705,50.631 109.392,50.321C109.079,50.012 108.629,49.857 108.041,49.857C107.811,49.857 107.609,49.881 107.435,49.929C107.26,49.976 107.107,50.032 106.976,50.095C106.846,50.159 106.736,50.228 106.649,50.303C106.562,50.379 106.49,50.448 106.435,50.512L106.899,51.273C106.947,51.226 107.004,51.17 107.072,51.107C107.139,51.043 107.22,50.982 107.316,50.922C107.411,50.863 107.518,50.813 107.637,50.774C107.756,50.734 107.895,50.714 108.053,50.714C108.339,50.714 108.557,50.778 108.708,50.904C108.859,51.031 108.934,51.186 108.934,51.369C108.934,51.503 108.916,51.62 108.88,51.72C108.845,51.819 108.791,51.908 108.72,51.987C108.648,52.067 108.561,52.142 108.458,52.213C108.355,52.285 108.236,52.364 108.101,52.451L107.744,52.678C107.387,52.908 107.107,53.15 106.905,53.403C106.703,53.657 106.602,53.983 106.602,54.379C106.602,54.593 106.643,54.79 106.727,54.968C106.81,55.147 106.927,55.301 107.078,55.432C107.228,55.563 107.405,55.666 107.607,55.742C107.809,55.817 108.026,55.855 108.256,55.855C108.478,55.855 108.668,55.833 108.827,55.789C108.986,55.746 109.122,55.69 109.237,55.623C109.352,55.555 109.448,55.488 109.523,55.421C109.598,55.353 109.66,55.296 109.707,55.248L109.291,54.558ZM114.17,54.605C114.146,54.629 114.108,54.665 114.057,54.712C114.005,54.76 113.94,54.808 113.861,54.855C113.781,54.903 113.686,54.945 113.575,54.98C113.464,55.016 113.337,55.034 113.194,55.034C112.988,55.034 112.796,54.996 112.617,54.921C112.439,54.845 112.284,54.724 112.153,54.558C112.022,54.391 111.919,54.175 111.844,53.909C111.768,53.643 111.73,53.32 111.73,52.939C111.73,52.519 111.764,52.166 111.832,51.88C111.899,51.595 111.992,51.367 112.111,51.196C112.23,51.025 112.375,50.902 112.546,50.827C112.716,50.752 112.905,50.714 113.111,50.714C113.404,50.714 113.629,50.766 113.783,50.869C113.938,50.972 114.047,51.055 114.11,51.119L114.503,50.452C114.463,50.405 114.406,50.347 114.331,50.28C114.255,50.212 114.158,50.147 114.039,50.083C113.92,50.02 113.775,49.966 113.605,49.923C113.434,49.879 113.238,49.857 113.016,49.857C112.698,49.857 112.401,49.909 112.123,50.012C111.845,50.115 111.604,50.286 111.397,50.524C111.191,50.762 111.028,51.071 110.909,51.452C110.79,51.833 110.731,52.305 110.731,52.868C110.731,53.415 110.802,53.879 110.945,54.26C111.088,54.641 111.274,54.948 111.504,55.183C111.734,55.417 111.99,55.587 112.272,55.694C112.554,55.801 112.837,55.855 113.123,55.855C113.337,55.855 113.525,55.835 113.688,55.795C113.851,55.756 113.989,55.706 114.105,55.647C114.22,55.587 114.315,55.524 114.39,55.456C114.465,55.389 114.527,55.331 114.575,55.284L114.17,54.605ZM118.704,50L118.704,53.677C118.704,54.161 118.623,54.508 118.46,54.718C118.297,54.929 118.049,55.034 117.716,55.034C117.431,55.034 117.193,54.962 117.002,54.82C116.812,54.677 116.661,54.538 116.55,54.403L116.55,50L115.586,50L115.586,58.413L116.55,58.52L116.55,55.129L116.574,55.129C116.605,55.177 116.655,55.24 116.723,55.319C116.79,55.399 116.883,55.478 117.002,55.557C117.121,55.637 117.266,55.706 117.437,55.766C117.607,55.825 117.807,55.855 118.037,55.855C118.537,55.855 118.934,55.692 119.227,55.367C119.521,55.042 119.668,54.502 119.668,53.749L119.668,50L118.704,50ZM125.106,50L124.225,50L124.225,50.643L124.202,50.643C124.178,50.595 124.126,50.526 124.047,50.434C123.968,50.343 123.866,50.256 123.744,50.173C123.62,50.089 123.472,50.016 123.297,49.952C123.123,49.889 122.928,49.857 122.714,49.857C122.46,49.857 122.232,49.895 122.03,49.97C121.828,50.046 121.655,50.167 121.512,50.333C121.369,50.5 121.26,50.716 121.185,50.982C121.11,51.248 121.072,51.575 121.072,51.964L121.072,55.712L122.036,55.712L122.036,52.035C122.036,51.559 122.113,51.22 122.268,51.017C122.423,50.815 122.662,50.714 122.988,50.714C123.265,50.714 123.499,50.783 123.69,50.922C123.88,51.061 124.031,51.198 124.142,51.333L124.142,55.712L125.106,55.712L125.106,50ZM129.021,54.927L127.772,54.927L127.772,51.761C127.772,51.357 127.823,51.081 127.926,50.934C128.029,50.787 128.204,50.714 128.45,50.714C128.593,50.714 128.716,50.734 128.819,50.774C128.922,50.813 128.997,50.849 129.045,50.881L129.176,50.107C129.136,50.075 129.041,50.026 128.89,49.958C128.739,49.891 128.537,49.857 128.283,49.857C127.791,49.857 127.423,49.994 127.177,50.268C126.931,50.541 126.808,50.996 126.808,51.63L126.808,54.927L126.117,54.927L126.117,55.569L126.808,55.712L126.915,57.307L127.772,57.307L127.772,55.712L129.14,55.712L129.021,54.927ZM133.305,55.093L130.996,50.845L130.996,50.821L133.46,50.821L133.376,50L129.747,50L129.747,50.619L132.127,54.903L132.127,54.927L129.878,54.927L129.878,55.712L133.305,55.712L133.305,55.093Z" style="fill-rule:nonzero;"/>
                </g>
            </g>
            <g id="Adler-und-Saeulenelement" transform="matrix(1,0,0,1,0.130861,0)">
                <g transform="matrix(1.69047,0,0,1.69047,-57.8732,-35.5742)">
                    <path d="M37.173,29.339C37.2,29.115 37.216,28.884 37.216,28.648C37.216,28.519 37.217,28.369 37.201,28.199C39.194,28.171 40.942,26.735 40.942,25.084C40.942,24.244 40.394,23.61 40.085,23.231C40.154,23.216 40.224,23.2 40.295,23.183C40.587,23.437 41.415,24.339 41.415,25.478C41.415,27.459 39.435,29.298 37.173,29.339M35.165,22.44C35.128,22.219 35.044,22.019 34.916,21.847C34.923,21.645 35.006,21.452 35.331,21.611C35.155,21.791 35.291,22.11 35.291,22.11C35.291,22.11 35.651,21.943 35.576,21.705C36.11,21.833 35.726,22.55 35.165,22.44M34.702,23.457C34.631,23.161 34.479,22.857 34.286,22.628C34.11,22.42 33.819,22.173 33.427,22.173C33.248,22.173 32.948,22.257 32.757,22.338C32.686,22.208 32.547,21.895 32.547,21.754C32.547,21.609 32.792,21.462 33.261,21.462C34.293,21.462 34.909,21.928 34.909,22.71C34.909,22.985 34.8,23.235 34.702,23.457M37.352,36.757C37.472,36.757 37.53,36.776 37.6,36.802C37.897,37.61 39.042,39.135 39.09,39.2L39.1,39.214L39.117,39.21C39.398,39.165 40.115,39.057 40.715,39.057L40.729,39.057C40.794,39.057 40.868,39.057 40.915,39.103C40.954,39.142 40.973,39.21 40.973,39.307C40.973,39.456 40.91,39.711 40.834,39.82C40.624,39.591 40.283,39.488 39.737,39.488C39.573,39.488 39.379,39.537 39.274,39.565L39.231,39.574L39.182,39.587L39.497,39.902C39.983,40.388 40.403,40.807 40.403,41.086C40.403,41.254 40.239,41.473 40.089,41.57C40.056,41.059 39.54,40.375 39.037,39.992L38.994,39.96L38.986,40.14C38.979,40.262 38.968,40.445 38.968,40.641C38.968,41.614 38.869,41.762 38.532,41.762C38.48,41.762 38.401,41.747 38.352,41.729C38.542,41.494 38.617,41.184 38.617,40.64L38.614,40.389L38.611,40.187C38.611,39.964 38.634,39.799 38.652,39.666L38.662,39.591L38.609,39.584C38.451,39.562 38.158,39.522 37.934,39.522C37.453,39.522 37.127,39.566 36.891,39.788C36.735,39.662 36.575,39.445 36.575,39.308C36.575,39.105 36.701,39.089 36.867,39.089C36.951,39.089 37.029,39.101 37.137,39.114C37.344,39.145 37.655,39.191 38.296,39.191L38.336,39.191L38.323,39.152C38.161,38.687 37.715,38.011 37,37.142C37.064,36.909 37.127,36.757 37.352,36.757M31.178,39.152L31.165,39.191L31.205,39.191C31.845,39.191 32.157,39.145 32.364,39.114C32.472,39.101 32.55,39.089 32.634,39.089C32.799,39.089 32.926,39.105 32.926,39.308C32.926,39.445 32.766,39.662 32.611,39.788C32.374,39.566 32.048,39.522 31.568,39.522C31.343,39.522 31.049,39.562 30.892,39.584L30.867,39.587L30.839,39.591L30.848,39.666C30.867,39.799 30.89,39.964 30.89,40.187L30.887,40.389L30.884,40.64C30.884,41.184 30.959,41.494 31.15,41.729C31.1,41.747 31.021,41.762 30.969,41.762C30.631,41.762 30.533,41.614 30.533,40.641C30.533,40.445 30.523,40.262 30.516,40.14L30.506,39.959L30.464,39.992C29.962,40.375 29.444,41.059 29.413,41.57C29.262,41.473 29.098,41.254 29.098,41.086C29.098,40.807 29.518,40.388 30.004,39.902L30.319,39.587L30.227,39.565C30.122,39.537 29.928,39.488 29.763,39.488C29.218,39.488 28.878,39.591 28.667,39.82C28.591,39.711 28.528,39.456 28.528,39.307C28.528,39.21 28.547,39.142 28.586,39.103C28.633,39.057 28.707,39.057 28.772,39.057L28.786,39.057C29.386,39.057 30.104,39.165 30.384,39.21L30.401,39.214L30.411,39.2C30.46,39.135 31.604,37.61 31.902,36.802C31.97,36.776 32.029,36.757 32.149,36.757C32.374,36.757 32.437,36.909 32.502,37.142C31.786,38.011 31.34,38.687 31.178,39.152M28.086,25.478C28.086,24.339 28.915,23.437 29.207,23.183C29.277,23.2 29.347,23.216 29.417,23.231C29.107,23.61 28.559,24.244 28.559,25.084C28.559,26.752 30.341,28.2 32.359,28.2C32.346,28.343 32.339,28.493 32.339,28.648C32.339,28.894 32.353,29.123 32.377,29.339C30.095,29.325 28.086,27.473 28.086,25.478M43.392,28.991C44.416,30.61 45.217,30.583 46.427,30.583C45.426,29.816 44.764,28.833 44.448,28.331L42.578,25.339C42.396,24.415 41.918,23.551 41.202,22.908C41.443,22.817 41.643,22.721 41.763,22.63C40.542,22.63 39.332,22.01 38.666,22.01C38.238,22.01 37.963,22.266 37.963,22.604C37.99,22.981 38.378,23.364 39.095,23.364C39.257,23.364 39.465,23.343 39.693,23.305C40.081,23.846 40.394,24.335 40.394,25.033C40.394,26.343 38.828,27.364 37.247,27.364C37.157,27.364 37.072,27.36 36.983,27.354C36.84,27.029 36.363,26.484 36.363,25.864C36.363,24.823 37.042,23.973 37.042,22.942C37.042,22.301 36.73,21.904 36.61,21.739C36.804,21.559 37.016,21.338 37.066,21.186C36.953,21.235 36.819,21.241 36.624,21.241C35.866,21.241 35.248,21.044 34.646,21.044C34.302,21.044 34.21,21.15 34.21,21.251C34.21,21.288 34.215,21.326 34.225,21.344C34.097,21.294 33.977,21.261 33.834,21.235C33.656,21.201 33.465,21.184 33.261,21.184C32.529,21.184 32.269,21.491 32.269,21.754C32.269,21.976 32.444,22.382 32.643,22.692C32.928,22.548 33.271,22.451 33.427,22.451C33.816,22.451 34.161,22.821 34.344,23.259C34.083,23.291 34.033,23.302 33.769,23.302C33.056,23.302 32.571,23.047 32.471,23.047C32.462,23.047 32.443,23.052 32.443,23.068C32.443,23.168 32.645,23.432 33.043,23.577C33.568,23.769 34.354,23.849 34.485,23.871C34.485,23.894 34.352,24.142 34.203,24.19C34.172,24.2 34.147,24.201 34.11,24.193C33.562,24.085 33.409,24.039 32.714,23.775C32.693,23.767 32.68,23.78 32.68,23.802C32.68,24.077 33.392,24.684 34.03,24.917C33.497,25.597 32.832,26.293 32.518,27.354C32.429,27.36 32.343,27.364 32.254,27.364C30.673,27.364 29.107,26.343 29.107,25.033C29.107,24.335 29.42,23.846 29.808,23.305C30.036,23.343 30.243,23.364 30.406,23.364C31.123,23.364 31.511,22.981 31.539,22.604C31.539,22.266 31.264,22.01 30.835,22.01C30.169,22.01 28.96,22.63 27.737,22.63C27.858,22.721 28.058,22.817 28.298,22.908C27.583,23.551 27.105,24.415 26.923,25.339L25.053,28.331C24.738,28.833 24.074,29.816 23.073,30.583C24.283,30.583 25.085,30.61 26.109,28.991L27.068,27.457C27.139,27.656 27.226,27.85 27.329,28.04L25.422,31.091C25.105,31.597 24.447,32.571 23.442,33.343C24.652,33.343 25.454,33.371 26.478,31.753L28.119,29.125C28.242,29.256 28.371,29.384 28.507,29.506L26.191,33.214C25.873,33.721 25.219,34.693 24.212,35.464C25.422,35.464 26.224,35.493 27.247,33.874L29.505,30.259C29.654,30.353 29.806,30.444 29.964,30.53L27.207,34.941C26.889,35.448 26.235,36.417 25.228,37.191C26.438,37.191 27.24,37.219 28.264,35.601L31.102,31.058C31.27,31.122 31.44,31.184 31.613,31.239L28.406,36.372C28.093,36.872 27.424,37.859 26.428,38.622C27.637,38.622 28.44,38.65 29.463,37.032L32.881,31.562C32.916,31.568 32.95,31.573 32.984,31.58C33.077,31.876 33.142,32.152 33.142,32.427C33.142,34.146 32.014,35.664 30.66,36.836C30.747,36.874 30.898,36.887 31.037,36.887C31.317,36.887 31.497,36.872 31.624,36.85C31.31,37.563 30.636,38.484 30.296,38.96C29.853,38.88 29.208,38.818 28.786,38.818C28.344,38.818 28.294,39.076 28.294,39.307C28.294,39.708 28.482,40.027 28.7,40.205C28.782,40 28.947,39.726 29.763,39.726C29.779,39.726 29.807,39.728 29.845,39.731C29.607,39.996 28.86,40.6 28.86,41.086C28.86,41.408 29.213,41.891 29.678,41.891C29.651,41.787 29.654,41.692 29.654,41.62C29.654,41.226 30.003,40.765 30.298,40.443C30.289,40.539 30.294,40.529 30.294,40.641C30.294,41.572 30.378,42 30.969,42C31.259,42 31.459,41.841 31.528,41.793C31.144,41.44 31.124,41.162 31.124,40.64C31.125,40.504 31.126,40.371 31.128,40.188C31.129,40.068 31.127,39.91 31.108,39.796C31.319,39.767 31.405,39.767 31.568,39.767C31.568,39.767 32.407,39.7 32.61,40.137C32.838,39.928 33.169,39.633 33.169,39.308C33.169,39.093 33.067,38.85 32.634,38.85C32.47,38.85 31.955,38.95 31.524,38.95C31.64,38.693 32.155,37.939 32.602,37.392C32.67,37.604 32.775,37.833 33.009,38.021C33.042,37.669 33.248,36.556 33.798,35.905C33.862,36.345 33.948,36.796 33.948,37.747C33.948,40.061 33.392,41.77 32.211,42.096C32.365,42.363 32.69,42.604 33.027,42.604C33.459,42.604 33.694,42.115 33.934,41.654C34.059,41.994 34.404,42.828 34.75,42.828C35.096,42.828 35.442,41.994 35.567,41.654C35.806,42.115 36.042,42.604 36.474,42.604C36.811,42.604 37.136,42.363 37.29,42.096C36.109,41.77 35.552,40.061 35.552,37.747C35.552,36.796 35.638,36.345 35.702,35.905C36.253,36.556 36.46,37.669 36.491,38.021C36.726,37.833 36.832,37.604 36.899,37.392C37.345,37.939 37.861,38.693 37.977,38.95C37.546,38.95 37.03,38.85 36.867,38.85C36.435,38.85 36.333,39.093 36.333,39.308C36.333,39.633 36.664,39.928 36.892,40.137C37.093,39.7 37.934,39.767 37.934,39.767C38.096,39.767 38.182,39.767 38.394,39.796C38.374,39.91 38.373,40.068 38.374,40.188C38.376,40.371 38.376,40.504 38.377,40.64C38.377,41.162 38.357,41.44 37.973,41.793C38.042,41.841 38.242,42 38.532,42C39.123,42 39.208,41.572 39.208,40.641C39.208,40.529 39.211,40.539 39.203,40.443C39.498,40.765 39.847,41.226 39.847,41.62C39.847,41.692 39.851,41.787 39.822,41.891C40.288,41.891 40.642,41.408 40.642,41.086C40.642,40.6 39.895,39.996 39.655,39.731C39.694,39.728 39.722,39.726 39.737,39.726C40.554,39.726 40.719,40 40.801,40.205C41.019,40.027 41.207,39.708 41.207,39.307C41.207,39.076 41.157,38.818 40.715,38.818C40.293,38.818 39.649,38.88 39.205,38.96C38.864,38.484 38.192,37.563 37.877,36.85C38.004,36.872 38.185,36.887 38.464,36.887C38.604,36.887 38.754,36.874 38.841,36.836C37.487,35.664 36.359,34.146 36.359,32.427C36.359,32.152 36.424,31.876 36.517,31.58C36.55,31.573 36.586,31.568 36.62,31.562L40.038,37.032C41.061,38.65 41.864,38.622 43.073,38.622C42.077,37.859 41.408,36.872 41.095,36.372L37.887,31.239C38.061,31.184 38.232,31.122 38.4,31.058L41.237,35.601C42.261,37.219 43.063,37.191 44.273,37.191C43.266,36.417 42.612,35.448 42.294,34.941L39.538,30.53C39.694,30.444 39.847,30.353 39.995,30.259L42.254,33.874C43.278,35.493 44.079,35.464 45.289,35.464C44.282,34.693 43.629,33.721 43.31,33.214L40.994,29.506C41.13,29.384 41.26,29.256 41.381,29.125L43.024,31.753C44.047,33.371 44.849,33.343 46.059,33.343C45.053,32.571 44.397,31.597 44.079,31.091L42.173,28.04C42.275,27.85 42.362,27.656 42.434,27.457L43.392,28.991Z" style="fill-rule:nonzero;"/>
                </g>
                <g transform="matrix(1.69047,0,0,1.69047,-57.8732,-35.5742)">
                    <rect x="52.5" y="22" width="3.5" height="20" style="fill-rule:nonzero;"/>
                </g>
                <g transform="matrix(1.69047,0,0,1.69047,-57.8732,-35.5742)">
                    <rect x="52.5" y="42" width="3.5" height="20" style="fill:rgb(255,0,0);fill-rule:nonzero;"/>
                </g>
                <g transform="matrix(1.69047,0,0,1.69047,-57.8732,-35.5742)">
                    <rect x="52.5" y="62" width="3.5" height="20" style="fill:rgb(255,204,0);fill-rule:nonzero;"/>
                </g>
            </g>
        </g>
    </g>
</svg>
