<?xml version="1.0" encoding="UTF-8" standalone="no"?>
<svg
   viewBox="0 0 512 512"
   version="1.1"
   id="svg1"
   sodipodi:docname="circle-nodes-solid.svg"
   inkscape:version="1.3.2 (091e20e, 2023-11-25, custom)"
   xmlns:inkscape="http://www.inkscape.org/namespaces/inkscape"
   xmlns:sodipodi="http://sodipodi.sourceforge.net/DTD/sodipodi-0.dtd"
   xmlns="http://www.w3.org/2000/svg"
   xmlns:svg="http://www.w3.org/2000/svg">
  <defs
     id="defs1" />
  <sodipodi:namedview
     id="namedview1"
     pagecolor="#ffffff"
     bordercolor="#000000"
     borderopacity="0.25"
     inkscape:showpageshadow="2"
     inkscape:pageopacity="0.0"
     inkscape:pagecheckerboard="0"
     inkscape:deskcolor="#d1d1d1"
     inkscape:zoom="2.2910156"
     inkscape:cx="255.78176"
     inkscape:cy="256"
     inkscape:window-width="2560"
     inkscape:window-height="1369"
     inkscape:window-x="2552"
     inkscape:window-y="-8"
     inkscape:window-maximized="1"
     inkscape:current-layer="svg1" />
  <!--!Font Awesome Free 6.6.0 by @fontawesome - https://fontawesome.com License - https://fontawesome.com/license/free Copyright 2024 Fonticons, Inc.-->
  <path
     d="M418.4 157.9c35.3-8.3 61.6-40 61.6-77.9c0-44.2-35.8-80-80-80c-43.4 0-78.7 34.5-80 77.5L136.2 151.1C121.7 136.8 101.9 128 80 128c-44.2 0-80 35.8-80 80s35.8 80 80 80c12.2 0 23.8-2.7 34.1-7.6L259.7 407.8c-2.4 7.6-3.7 15.8-3.7 24.2c0 44.2 35.8 80 80 80s80-35.8 80-80c0-27.7-14-52.1-35.4-66.4l37.8-207.7zM156.3 232.2c2.2-6.9 3.5-14.2 3.7-21.7l183.8-73.5c3.6 3.5 7.4 6.7 11.6 9.5L317.6 354.1c-5.5 1.3-10.8 3.1-15.8 5.5L156.3 232.2z"
     id="path1"
     style="stroke:none;fill:#004225;fill-opacity:1" />
</svg>
