<?xml version="1.0" encoding="UTF-8" standalone="no"?>
<!DOCTYPE svg PUBLIC "-//W3C//DTD SVG 1.1//EN" "http://www.w3.org/Graphics/SVG/1.1/DTD/svg11.dtd">
<svg width="100%" height="100%" viewBox="0 0 142 140" version="1.1" xmlns="http://www.w3.org/2000/svg" xmlns:xlink="http://www.w3.org/1999/xlink" xml:space="preserve" xmlns:serif="http://www.serif.com/" style="fill-rule:evenodd;clip-rule:evenodd;stroke-linejoin:round;stroke-miterlimit:2;">
    <g id="Ebene_1-2">
        <g>
            <path d="M100.63,97.51L71.41,47.8C66.44,39.89 58.28,39.86 53.26,47.74L2.28,125.59C-2.74,133.47 0.8,139.91 10.14,139.91L15.48,139.91L38.15,107.89C38.19,107.83 38.21,107.77 38.25,107.7L46.93,94.56L58.22,77.48C60.21,74.47 63.47,74.47 65.47,77.48L76.91,97.51L100.63,97.51Z" style="fill:rgb(0,66,37);fill-rule:nonzero;"/>
            <path d="M139.49,125.53L129.46,109.5L81.39,109.5L69.82,127.06L115.65,127.06C118.45,127.06 120.74,129.35 120.74,132.15L120.74,139.91L131.53,139.91C140.87,139.91 144.45,133.44 139.48,125.53L139.49,125.53Z" style="fill:rgb(0,66,37);fill-rule:nonzero;"/>
            <g transform="matrix(0.382683,-0.92388,0.92388,0.382683,32.05,83.76)">
                <circle cx="78.7" cy="17.9" r="17.9" style="fill:rgb(0,66,37);"/>
            </g>
            <path d="M91.78,63.1L103.77,82.2C105.56,85.05 109.78,87.39 113.15,87.39L131.27,87.39C134.64,87.39 135.94,85.05 134.15,82.19L122.24,63.11C120.46,60.25 116.24,57.91 112.87,57.91L94.64,57.91C91.27,57.91 89.98,60.24 91.77,63.1L91.78,63.1Z" style="fill:rgb(0,66,37);fill-rule:nonzero;"/>
        </g>
    </g>
</svg>
