<?xml version="1.0" encoding="UTF-8"?><svg id="Ebene_2" xmlns="http://www.w3.org/2000/svg" viewBox="0 0 170.91 35.16"><g id="Ebene_1-2"><path d="M125.96,5.83v2.24h-23.1c-.82,0-2.13-.18-2.91-.4l-2.4-.67c-.79-.22-1.43,.27-1.43,1.09v5.36c0,.82,.67,1.48,1.48,1.48h28.36v15.27c0,2.6-2.13,4.72-4.72,4.72h-27.67c-2.6,0-4.72-2.13-4.72-4.72v-1.68h22.21c.82,0,2.13,.18,2.91,.4l2.4,.67c.79,.22,1.43-.27,1.43-1.09v-5.36c0-.82-.67-1.48-1.48-1.48h-27.46V5.83c0-2.6,2.13-4.72,4.72-4.72h27.67c2.6,0,4.72,2.13,4.72,4.72Zm-88.79-1.8v3.99H13.26c-.8,0-2.1-.18-2.87-.39l-2.37-.66c-.78-.22-1.41,.27-1.41,1.07v5.29c0,.8,.66,1.46,1.46,1.46h29.09v6.8H8.08c-.8,0-1.46,.66-1.46,1.46v5.29c0,.8,.63,1.29,1.41,1.07l2.37-.66c.78-.22,2.07-.39,2.87-.39h23.9v3.8c0,1.61-1.32,2.93-2.93,2.93H2.93c-1.61,0-2.93-1.32-2.93-2.93V4.03C0,2.42,1.32,1.1,2.93,1.1h31.32c1.61,0,2.93,1.32,2.93,2.93Zm103.19,4.01v5.29c0,.8,.66,1.46,1.46,1.46h29.09v6.8h-29.09c-.8,0-1.46,.66-1.46,1.46v5.29c0,.8,.63,1.29,1.41,1.07l2.37-.66c.78-.22,2.07-.39,2.87-.39h23.9v3.8c0,1.61-1.32,2.93-2.93,2.93h-31.32c-1.61,0-2.93-1.32-2.93-2.93V4.03c0-1.61,1.32-2.93,2.93-2.93h31.32c1.61,0,2.93,1.32,2.93,2.93v3.99h-23.9c-.8,0-2.1-.18-2.87-.39l-2.37-.66c-.78-.22-1.41,.27-1.41,1.07ZM66.39,1.98c-1.66-2.64-4.38-2.65-6.05-.02l-18.11,28.42c-1.67,2.63-.49,4.78,2.62,4.78h5.72v-2.59c0-.93,.76-1.7,1.7-1.7h21.85c.93,0,1.7,.76,1.7,1.7v2.59h5.73c3.11,0,4.31-2.16,2.65-4.8L66.39,1.98Zm3.7,21.81h-13.78c-1.21,0-1.65-.82-.98-1.83l6.66-10.08c.66-1.01,1.75-1.01,2.42,0l6.66,10.08c.66,1.01,.22,1.83-.98,1.83Z" style="fill:#fff;"/></g></svg>