<?xml version="1.0" encoding="UTF-8" standalone="no"?>
<!DOCTYPE svg PUBLIC "-//W3C//DTD SVG 1.1//EN" "http://www.w3.org/Graphics/SVG/1.1/DTD/svg11.dtd">
<svg width="100%" height="100%" viewBox="0 0 171 36" version="1.1" xmlns="http://www.w3.org/2000/svg" xmlns:xlink="http://www.w3.org/1999/xlink" xml:space="preserve" xmlns:serif="http://www.serif.com/" style="fill-rule:evenodd;clip-rule:evenodd;stroke-linejoin:round;stroke-miterlimit:2;">
    <g id="Ebene_1-2">
        <path d="M125.96,5.83L125.96,8.07L102.86,8.07C102.04,8.07 100.73,7.89 99.95,7.67L97.55,7C96.76,6.78 96.12,7.27 96.12,8.09L96.12,13.45C96.12,14.27 96.79,14.93 97.6,14.93L125.96,14.93L125.96,30.2C125.96,32.8 123.83,34.92 121.24,34.92L93.57,34.92C90.97,34.92 88.85,32.79 88.85,30.2L88.85,28.52L111.06,28.52C111.88,28.52 113.19,28.7 113.97,28.92L116.37,29.59C117.16,29.81 117.8,29.32 117.8,28.5L117.8,23.14C117.8,22.32 117.13,21.66 116.32,21.66L88.86,21.66L88.86,5.83C88.86,3.23 90.99,1.11 93.58,1.11L121.25,1.11C123.85,1.11 125.97,3.24 125.97,5.83L125.96,5.83ZM37.17,4.03L37.17,8.02L13.26,8.02C12.46,8.02 11.16,7.84 10.39,7.63L8.02,6.97C7.24,6.75 6.61,7.24 6.61,8.04L6.61,13.33C6.61,14.13 7.27,14.79 8.07,14.79L37.16,14.79L37.16,21.59L8.08,21.59C7.28,21.59 6.62,22.25 6.62,23.05L6.62,28.34C6.62,29.14 7.25,29.63 8.03,29.41L10.4,28.75C11.18,28.53 12.47,28.36 13.27,28.36L37.17,28.36L37.17,32.16C37.17,33.77 35.85,35.09 34.24,35.09L2.93,35.09C1.32,35.09 0,33.77 0,32.16L0,4.03C0,2.42 1.32,1.1 2.93,1.1L34.25,1.1C35.86,1.1 37.18,2.42 37.18,4.03L37.17,4.03ZM140.36,8.04L140.36,13.33C140.36,14.13 141.02,14.79 141.82,14.79L170.91,14.79L170.91,21.59L141.82,21.59C141.02,21.59 140.36,22.25 140.36,23.05L140.36,28.34C140.36,29.14 140.99,29.63 141.77,29.41L144.14,28.75C144.92,28.53 146.21,28.36 147.01,28.36L170.91,28.36L170.91,32.16C170.91,33.77 169.59,35.09 167.98,35.09L136.66,35.09C135.05,35.09 133.73,33.77 133.73,32.16L133.73,4.03C133.73,2.42 135.05,1.1 136.66,1.1L167.98,1.1C169.59,1.1 170.91,2.42 170.91,4.03L170.91,8.02L147.01,8.02C146.21,8.02 144.91,7.84 144.14,7.63L141.77,6.97C140.99,6.75 140.36,7.24 140.36,8.04ZM66.39,1.98C64.73,-0.66 62.01,-0.67 60.34,1.96L42.23,30.38C40.56,33.01 41.74,35.16 44.85,35.16L50.57,35.16L50.57,32.57C50.57,31.64 51.33,30.87 52.27,30.87L74.12,30.87C75.05,30.87 75.82,31.63 75.82,32.57L75.82,35.16L81.55,35.16C84.66,35.16 85.86,33 84.2,30.36L66.39,1.98ZM70.09,23.79L56.31,23.79C55.1,23.79 54.66,22.97 55.33,21.96L61.99,11.88C62.65,10.87 63.74,10.87 64.41,11.88L71.07,21.96C71.73,22.97 71.29,23.79 70.09,23.79Z" style="fill:rgb(0,66,37);fill-rule:nonzero;"/>
    </g>
</svg>
