<?xml version="1.0" encoding="UTF-8" standalone="no"?>
<svg
   width="100%"
   height="100%"
   viewBox="0 0 150 150"
   version="1.1"
   xml:space="preserve"
   style="fill-rule:evenodd;clip-rule:evenodd;stroke-linejoin:round;stroke-miterlimit:2;"
   id="svg2"
   sodipodi:docname="favicon_big.svg"
   inkscape:version="1.3.2 (091e20e, 2023-11-25, custom)"
   xmlns:inkscape="http://www.inkscape.org/namespaces/inkscape"
   xmlns:sodipodi="http://sodipodi.sourceforge.net/DTD/sodipodi-0.dtd"
   xmlns="http://www.w3.org/2000/svg"
   xmlns:svg="http://www.w3.org/2000/svg"><defs
   id="defs2" /><sodipodi:namedview
   id="namedview2"
   pagecolor="#ffffff"
   bordercolor="#000000"
   borderopacity="0.25"
   inkscape:showpageshadow="2"
   inkscape:pageopacity="0.0"
   inkscape:pagecheckerboard="0"
   inkscape:deskcolor="#d1d1d1"
   inkscape:zoom="2.7647875"
   inkscape:cx="-28.031087"
   inkscape:cy="63.476849"
   inkscape:window-width="2560"
   inkscape:window-height="1369"
   inkscape:window-x="-8"
   inkscape:window-y="-8"
   inkscape:window-maximized="1"
   inkscape:current-layer="svg2" />
    <rect
   x="10.748"
   y="15.449"
   width="127.389"
   height="120.856"
   style="fill:rgb(237,235,221);"
   id="rect1" />
    <g
   id="Ebene_1-2">
        <g
   id="g2">
            <path
   d="M107.58,35.26C106.64,33.84 105.1,33.84 104.15,35.26L94.71,49.55C93.77,50.97 94.4,52.14 96.1,52.14L115.63,52.14C117.34,52.14 117.96,50.97 117.02,49.55L107.58,35.26Z"
   style="fill:rgb(0,66,37);fill-rule:nonzero;"
   id="path1" />
            <path
   d="M142.82,0L7.08,0C3.19,0 0,3.19 0,7.08L0,142.82C0,146.72 3.19,149.9 7.08,149.9L142.82,149.9C146.72,149.9 149.9,146.71 149.9,142.82L149.9,7.08C149.9,3.18 146.71,0 142.82,0ZM68.7,91.38L35.96,91.38C34.8,91.38 32.95,91.13 31.83,90.82L28.43,89.88C27.32,89.57 26.41,90.26 26.41,91.42L26.41,99.02C26.41,100.18 27.36,101.12 28.51,101.12L68.7,101.12L68.7,122.76C68.7,126.44 65.69,129.46 62,129.46L22.78,129.46C19.1,129.46 16.08,126.45 16.08,122.76L16.08,120.38L47.55,120.38C48.71,120.38 50.56,120.63 51.68,120.94L55.08,121.88C56.19,122.19 57.11,121.5 57.11,120.34L57.11,112.74C57.11,111.58 56.16,110.64 55.01,110.64L16.09,110.64L16.09,88.2C16.09,84.52 19.1,81.5 22.79,81.5L62,81.5C65.68,81.5 68.7,84.51 68.7,88.2L68.7,91.38ZM68.97,29.79L35.09,29.79C33.95,29.79 32.12,29.54 31.02,29.23L27.67,28.3C26.57,27.99 25.67,28.68 25.67,29.82L25.67,37.32C25.67,38.46 26.6,39.39 27.74,39.39L68.97,39.39L68.97,49.02L27.74,49.02C26.6,49.02 25.67,49.95 25.67,51.09L25.67,58.59C25.67,59.73 26.57,60.41 27.67,60.11L31.02,59.18C32.12,58.87 33.95,58.62 35.09,58.62L68.97,58.62L68.97,64.01C68.97,66.29 67.1,68.16 64.82,68.16L20.43,68.16C18.15,68.16 16.28,66.29 16.28,64.01L16.28,24.13C16.28,21.85 18.15,19.98 20.43,19.98L64.81,19.98C67.09,19.98 68.96,21.85 68.96,24.13L68.96,29.78L68.97,29.79ZM132.41,91.32L98.53,91.32C97.39,91.32 95.56,91.07 94.46,90.76L91.11,89.83C90.01,89.52 89.11,90.21 89.11,91.35L89.11,98.85C89.11,99.99 90.04,100.92 91.18,100.92L132.41,100.92L132.41,110.55L91.18,110.55C90.04,110.55 89.11,111.48 89.11,112.62L89.11,120.12C89.11,121.26 90.01,121.94 91.11,121.64L94.46,120.71C95.56,120.4 97.39,120.15 98.53,120.15L132.41,120.15L132.41,125.54C132.41,127.82 130.54,129.69 128.26,129.69L83.88,129.69C81.6,129.69 79.73,127.82 79.73,125.54L79.73,85.65C79.73,83.37 81.6,81.5 83.88,81.5L128.26,81.5C130.54,81.5 132.41,83.37 132.41,85.65L132.41,91.32ZM131.88,68.26L123.76,68.26L123.76,64.59C123.76,63.27 122.68,62.18 121.35,62.18L90.38,62.18C89.06,62.18 87.97,63.26 87.97,64.59L87.97,68.26L79.86,68.26C75.44,68.26 73.77,65.21 76.15,61.49L101.81,21.21C104.18,17.49 108.04,17.5 110.39,21.24L135.64,61.46C137.99,65.2 136.3,68.26 131.88,68.26Z"
   style="fill:rgb(0,66,37);fill-rule:nonzero;"
   id="path2" />
        </g>
    </g>
</svg>
