<?xml version="1.0" encoding="UTF-8" standalone="no"?>
<!DOCTYPE svg PUBLIC "-//W3C//DTD SVG 1.1//EN" "http://www.w3.org/Graphics/SVG/1.1/DTD/svg11.dtd">
<svg width="100%" height="100%" viewBox="0 0 512 512" version="1.1" xmlns="http://www.w3.org/2000/svg" xmlns:xlink="http://www.w3.org/1999/xlink" xml:space="preserve" xmlns:serif="http://www.serif.com/" style="fill-rule:evenodd;clip-rule:evenodd;stroke-linejoin:round;stroke-miterlimit:2;">
    <path d="M278.5,215.6L23,471C13.6,480.4 13.6,495.6 23,504.9C32.4,514.2 47.6,514.3 56.9,504.9L113.9,447.9L181.9,447.9C231.6,447.9 279.8,433.5 320.9,406.9C332,399.7 326.4,383.9 313.1,383.9C308,383.9 303.9,379.8 303.9,374.7C303.9,370.6 306.6,367.1 310.4,365.9L391.4,341.6C393.9,340.8 396.2,339.5 398.1,337.6L420.5,315.2C430.6,305.1 423.4,287.9 409.2,287.9L377,287.9C371.9,287.9 367.8,283.8 367.8,278.7C367.8,274.6 370.5,271.1 374.3,269.9L486.3,236.3C490.3,235.1 493.7,232.4 495.6,228.6C506.4,207.6 512,184.1 512,160C512,119 495.7,79.7 466.7,50.7L461.2,45.2C432.3,16.3 393,0 352,0C311,0 271.7,16.3 242.7,45.3L139,149C91,197 64,262.1 64,330L64,385.3L253.6,195.8C259.8,189.6 270,189.6 276.2,195.8C281.6,201.2 282.3,209.4 278.4,215.6L278.5,215.6Z" style="fill:rgb(0,66,37);fill-rule:nonzero;"/>
</svg>
