<?xml version="1.0" encoding="UTF-8"?><svg id="Ebene_2" xmlns="http://www.w3.org/2000/svg" viewBox="0 0 469.41 484.11"><g id="Ebene_1-2"><g><path d="M160.8,330.62H13.79c-12.86,0-17.58-8.78-10.49-19.51l71.1-107.56c7.09-10.73,18.7-10.73,25.79,0l71.1,107.56c7.09,10.73,2.37,19.51-10.49,19.51Z" style="fill:#ccd9d3;"/><path d="M274.97,157.95H127.96c-12.86,0-17.58-8.78-10.49-19.51L188.57,30.88c7.09-10.73,18.7-10.73,25.79,0l71.1,107.56c7.09,10.73,2.37,19.51-10.49,19.51Z" style="fill:#336851;"/><path d="M127.96,176.33h147.01c12.86,0,17.58,8.78,10.49,19.51l-71.1,107.56c-7.09,10.73-18.7,10.73-25.79,0l-71.1-107.56c-7.09-10.73-2.37-19.51,10.49-19.51Z" style="fill:#80a092;"/><path d="M308.6,101.38h147.01c12.86,0,17.58,8.78,10.49,19.51l-71.1,107.56c-7.09,10.73-18.7,10.73-25.79,0l-71.1-107.56c-7.09-10.73-2.37-19.51,10.49-19.51Z" style="fill:#ccd9d3;"/><path d="M13.79,0H160.8c12.86,0,17.58,8.78,10.49,19.51L100.19,127.07c-7.09,10.73-18.7,10.73-25.79,0L3.3,19.51C-3.79,8.78,.93,0,13.79,0Z" style="fill:#80a092;"/><path d="M13.79,349H160.8c12.86,0,17.58,8.78,10.49,19.51l-71.1,107.56c-7.09,10.73-18.7,10.73-25.79,0L3.3,368.5c-7.09-10.73-2.37-19.51,10.49-19.51Z" style="fill:#b2c6be;"/><path d="M240.65,16.02h73.51c6.43,0,8.79,4.39,5.24,9.75l-35.55,53.78c-3.55,5.36-9.35,5.36-12.89,0l-35.55-53.78c-3.55-5.36-1.19-9.75,5.24-9.75Z" style="fill:#80a092;"/><path d="M388.76,83.58h-73.51c-6.43,0-8.79-4.39-5.24-9.75l35.55-53.78c3.55-5.36,9.35-5.36,12.89,0l35.55,53.78c3.55,5.36,1.19,9.75-5.24,9.75Z" style="fill:#e5ece9;"/><path d="M19.67,203.83v-73.51c0-6.43,4.39-8.79,9.75-5.24l53.78,35.55c5.36,3.55,5.36,9.35,0,12.89l-53.78,35.55c-5.36,3.55-9.75,1.19-9.75-5.24Z" style="fill:#e5ece9;"/></g></g></svg>