<svg class="brand" width="157" height="90" viewBox="0 0 157 90" xmlns="http://www.w3.org/2000/svg"><path d="M23 21.967c-.565-1.412-1.36-2.605-2.384-3.58-1.025-.975-2.278-1.719-3.76-2.232-1.482-.513-3.126-.77-4.931-.77v6.545c1.409.008 2.555.43 3.436 1.269.889.846 1.334 2.052 1.334 3.617v1.28h7.154v-1.28c0-1.822-.283-3.438-.848-4.85zm-6.305-5.882h7.154V0h-7.154v16.085zm-9.54.965V0H0v17.05c0 1.822.283 3.439.85 4.85.565 1.41 1.36 2.604 2.384 3.578 1.024.976 2.278 1.72 3.76 2.233 1.482.513 3.126.77 4.93.77v-6.545c-1.408-.008-2.554-.43-3.435-1.268-.89-.847-1.334-2.053-1.334-3.618zM80.19 61.52v28.095H73.32v-17.82l-7.802 9.969-7.72-9.93v17.781h-6.913V61.52h6.71l7.964 10.507 8.205-10.507h6.427zM41.234 89.23c-1.483.513-3.127.77-4.932.77-1.833 0-3.483-.257-4.952-.77-1.469-.513-2.715-1.257-3.739-2.232-1.024-.975-1.819-2.168-2.384-3.58-.566-1.41-.85-3.027-.85-4.849V61.52h7.155v17.05c0 1.565.425 2.771 1.274 3.618.848.847 2 1.27 3.456 1.27 1.428 0 2.587-.423 3.476-1.27.89-.847 1.334-2.053 1.334-3.618V61.52h7.155v17.05c0 1.822-.283 3.44-.85 4.85-.565 1.411-1.36 2.604-2.384 3.579-1.025.975-2.278 1.72-3.76 2.232zM21.713 61.52v6.196h-7.545v21.9H7.623v-21.9H0V61.52h21.713zm126.293-18.271c-.714.731-1.826 1.097-3.335 1.097h-5.134v-7.467h5.134c1.482 0 2.587.327 3.315.982.727.654 1.091 1.558 1.091 2.713 0 1.052-.357 1.944-1.07 2.675zm3.496 5.446A9.069 9.069 0 00155 45.289c.849-1.45 1.273-3.073 1.273-4.869a9.685 9.685 0 00-.727-3.752 8.654 8.654 0 00-2.143-3.06c-.943-.872-2.101-1.565-3.476-2.079-1.374-.512-2.95-.77-4.73-.77h-12.692v28.096h7.033v-8.428h5.539l4.163 8.428H157l-5.498-10.16zm-21.8-17.935v6.235h-13.339v4.618h13.34v6.235h-13.34v4.772h13.34v6.235h-20.374V30.76h20.373zm-23.037 0v28.095h-6.872v-17.82l-7.802 9.969-7.72-9.93v17.781h-6.913V30.76h6.71l7.964 10.507 8.205-10.507h6.428zm-31.971 0v28.095H67.62V48.04h-9.66v10.815h-7.075V30.76h7.074v10.66h9.661V30.76h7.074zm-26.473 0v6.235H34.88v4.618h13.34v6.235H34.88v4.772h13.34v6.235H27.848V30.76H48.22zm-23.038 0v28.095h-6.831L6.75 41.19v17.665H0V30.76h7.357l11.116 16.857V30.76h6.71zm91.322-18.27c-.715.73-1.826 1.096-3.335 1.096h-5.134V6.119h5.134c1.482 0 2.587.327 3.314.982.728.654 1.092 1.559 1.092 2.713 0 1.053-.358 1.944-1.071 2.675zM120 17.934a9.073 9.073 0 003.497-3.406c.849-1.45 1.273-3.072 1.273-4.869a9.685 9.685 0 00-.728-3.752 8.653 8.653 0 00-2.142-3.06c-.944-.872-2.102-1.565-3.476-2.078-1.375-.513-2.951-.77-4.73-.77h-12.692v28.096h7.033v-8.43h5.538l4.164 8.43h7.76l-5.497-10.161zM98.338 0v6.235h-13.34v4.618h13.34v6.235h-13.34v4.773h13.34v6.235H77.965V0h20.373zm-22.65 0v6.197h-7.546v21.899h-6.545v-21.9h-7.622V0h21.712zm-23.99 0v28.096h-6.832L33.265 10.43v17.666h-6.75V0h7.356l11.116 16.857V0h6.71z" fill="#000" fill-rule="evenodd"></path><title>UnternehmerTUM Logo</title></svg>