<?xml version="1.0" encoding="UTF-8" standalone="no"?>
<svg
   width="100%"
   height="100%"
   viewBox="0 0 384 512"
   version="1.1"
   xml:space="preserve"
   style="fill-rule:evenodd;clip-rule:evenodd;stroke-linejoin:round;stroke-miterlimit:2;"
   id="svg1"
   sodipodi:docname="xmar_darkk.svg"
   inkscape:version="1.3.2 (091e20e, 2023-11-25, custom)"
   xmlns:inkscape="http://www.inkscape.org/namespaces/inkscape"
   xmlns:sodipodi="http://sodipodi.sourceforge.net/DTD/sodipodi-0.dtd"
   xmlns="http://www.w3.org/2000/svg"
   xmlns:svg="http://www.w3.org/2000/svg"><defs
   id="defs1" /><sodipodi:namedview
   id="namedview1"
   pagecolor="#ffffff"
   bordercolor="#000000"
   borderopacity="0.25"
   inkscape:showpageshadow="2"
   inkscape:pageopacity="0.0"
   inkscape:pagecheckerboard="0"
   inkscape:deskcolor="#d1d1d1"
   inkscape:zoom="2.2910156"
   inkscape:cx="191.83632"
   inkscape:cy="256"
   inkscape:window-width="2560"
   inkscape:window-height="1369"
   inkscape:window-x="-8"
   inkscape:window-y="-8"
   inkscape:window-maximized="1"
   inkscape:current-layer="svg1" />
    <path
   d="M342.6,150.6C355.1,138.1 355.1,117.8 342.6,105.3C330.1,92.8 309.8,92.8 297.3,105.3L192,210.7L86.6,105.4C74.1,92.9 53.8,92.9 41.3,105.4C28.8,117.9 28.8,138.2 41.3,150.7L146.7,256L41.4,361.4C28.9,373.9 28.9,394.2 41.4,406.7C53.9,419.2 74.2,419.2 86.7,406.7L192,301.3L297.4,406.6C309.9,419.1 330.2,419.1 342.7,406.6C355.2,394.1 355.2,373.8 342.7,361.3L237.3,256L342.6,150.6Z"
   style="fill:#004225;fill-rule:nonzero;fill-opacity:1"
   id="path1" />
</svg>
