<?xml version="1.0" encoding="UTF-8" standalone="no"?>
<!DOCTYPE svg PUBLIC "-//W3C//DTD SVG 1.1//EN" "http://www.w3.org/Graphics/SVG/1.1/DTD/svg11.dtd">
<svg width="100%" height="100%" viewBox="0 0 774 222" version="1.1" xmlns="http://www.w3.org/2000/svg" xmlns:xlink="http://www.w3.org/1999/xlink" xml:space="preserve" xmlns:serif="http://www.serif.com/" style="fill-rule:evenodd;clip-rule:evenodd;stroke-linejoin:round;stroke-miterlimit:2;">
    <g id="Artboard1" transform="matrix(1,0,0,1,137.259,0)">
        <rect x="-137.259" y="0" width="773.418" height="222" style="fill:none;"/>
        <clipPath id="_clip1">
            <rect x="-137.259" y="0" width="773.418" height="222"/>
        </clipPath>
        <g clip-path="url(#_clip1)">
            <g transform="matrix(1.99592,0,0,1.99592,-247.691,-111.144)">
                <path d="M212.7,120.7L204.6,135.3L192.2,135.3L206.4,111.1L193.1,88.5L205.2,88.5L212.9,102.1L220.6,88.5L232.8,88.5L219.2,111.5L233.3,135.4L220.7,135.4L212.7,120.7Z" style="fill-rule:nonzero;"/>
                <path d="M237.1,88.4L255.8,88.4C258.5,88.4 261,88.9 263.2,89.8C265.4,90.7 267.3,92 268.9,93.6C270.5,95.2 271.7,97 272.6,99.1C273.5,101.2 273.9,103.5 273.9,105.9C273.9,108.3 273.5,110.5 272.6,112.6C271.7,114.7 270.5,116.6 269,118.2C267.4,119.8 265.5,121.1 263.3,122C261.1,123 258.5,123.4 255.8,123.4L248.4,123.4L248.4,135.1L237.2,135.1L237.2,88.4L237.1,88.4ZM248.3,98.5L248.3,113.1L255.2,113.1C257.3,113.1 259,112.4 260.4,111.1C261.8,109.8 262.5,108 262.5,105.8C262.5,103.6 261.8,101.9 260.4,100.5C259,99.2 257.3,98.5 255.2,98.5L248.3,98.5Z" style="fill-rule:nonzero;"/>
                <path d="M279,88.4L290.2,88.4L290.2,124.5L310.6,124.5L310.6,135.2L279,135.2L279,88.4Z" style="fill-rule:nonzero;"/>
                <path d="M336.9,135.9C333.6,135.9 330.4,135.3 327.5,134C324.6,132.7 322.1,131 319.9,128.9C317.7,126.7 316,124.2 314.8,121.3C313.6,118.4 312.9,115.2 312.9,111.9C312.9,108.6 313.5,105.4 314.8,102.5C316,99.6 317.7,97 319.9,94.9C322.1,92.7 324.6,91 327.5,89.7C330.4,88.4 333.5,87.8 336.9,87.8C340.2,87.8 343.4,88.4 346.3,89.7C349.2,91 351.8,92.7 353.9,94.9C356,97.1 357.8,99.6 359,102.5C360.2,105.4 360.9,108.5 360.9,111.9C360.9,115.2 360.3,118.4 359,121.3C357.8,124.2 356.1,126.8 353.9,128.9C351.7,131.1 349.2,132.8 346.3,134C343.4,135.2 340.2,135.9 336.9,135.9ZM336.9,124.8C338.7,124.8 340.4,124.5 342,123.8C343.6,123.1 344.9,122.2 346,121C347.1,119.8 348,118.4 348.7,116.9C349.3,115.3 349.7,113.7 349.7,111.9C349.7,110.1 349.4,108.4 348.7,106.8C348.1,105.2 347.2,103.8 346,102.6C344.8,101.4 343.5,100.5 341.9,99.8C340.3,99.1 338.7,98.8 336.9,98.8C335.1,98.8 333.4,99.1 331.9,99.8C330.3,100.5 329,101.4 327.9,102.6C326.8,103.8 325.9,105.2 325.3,106.8C324.7,108.4 324.3,110.1 324.3,111.9C324.3,113.7 324.6,115.4 325.2,116.9C325.8,118.5 326.7,119.8 327.8,121C328.9,122.2 330.3,123.1 331.8,123.8C333.3,124.5 335,124.8 336.9,124.8Z" style="fill-rule:nonzero;"/>
                <path d="M366.8,88.4L386.9,88.4C389.7,88.4 392.2,88.8 394.4,89.7C396.6,90.6 398.4,91.7 399.9,93.2C401.4,94.7 402.5,96.4 403.3,98.3C404.1,100.2 404.5,102.3 404.5,104.6C404.5,107.6 403.8,110.3 402.5,112.7C401.2,115.1 399.3,117 397,118.4L405.7,135.3L393.4,135.3L386.8,121.2L378,121.2L378,135.3L366.8,135.3L366.8,88.4ZM377.9,98.6L377.9,111L386,111C388.4,111 390.2,110.4 391.3,109.2C392.4,108 393,106.5 393,104.7C393,102.8 392.4,101.3 391.3,100.2C390.1,99.1 388.4,98.6 386,98.6L377.9,98.6Z" style="fill-rule:nonzero;"/>
                <path d="M410.8,88.4L443.1,88.4L443.1,98.8L422,98.8L422,106.5L443.2,106.5L443.2,116.9L422,116.9L422,124.9L443.2,124.9L443.2,135.3L410.9,135.3L410.9,88.4L410.8,88.4Z" style="fill-rule:nonzero;"/>
            </g>
            <g transform="matrix(1.99592,0,0,1.99592,-247.691,-111.144)">
                <path d="M111.5,70C100,70 90.7,79.3 90.7,90.8L132.3,90.8C132.3,79.3 123,70 111.5,70Z" style="fill-rule:nonzero;"/>
                <path d="M111.5,55.7C103.6,55.7 97.2,62.1 97.2,70L125.8,70C125.8,62.1 119.4,55.7 111.5,55.7Z" style="fill-rule:nonzero;"/>
                <path d="M111.5,153.2C123,153.2 132.3,143.9 132.3,132.4L90.7,132.4C90.7,143.9 100.1,153.2 111.5,153.2Z" style="fill-rule:nonzero;"/>
                <path d="M111.5,167.5C119.4,167.5 125.8,161.1 125.8,153.2L97.3,153.2C97.3,161.1 103.7,167.5 111.5,167.5Z" style="fill-rule:nonzero;"/>
                <path d="M70,111.6C70,123.1 79.3,132.4 90.8,132.4L90.8,90.8C79.3,90.8 70,100.1 70,111.6Z" style="fill-rule:nonzero;"/>
                <path d="M55.7,111.6C55.7,119.5 62.1,125.9 70,125.9L70,97.3C62.1,97.3 55.7,103.7 55.7,111.6Z" style="fill-rule:nonzero;"/>
                <path d="M76,147.1C79.8,150.9 85,153.2 90.7,153.2L90.7,132.4L70,132.4C70,138.1 72.3,143.3 76,147.1Z" style="fill-rule:nonzero;"/>
                <path d="M76,76.1C72.2,79.9 69.9,85.1 69.9,90.8L90.7,90.8L90.7,70C85,70 79.8,72.3 76,76.1Z" style="fill-rule:nonzero;"/>
                <path d="M132.3,90.8L132.3,132.4C143.8,132.4 153.1,123.1 153.1,111.6C153.1,100.1 143.8,90.8 132.3,90.8Z" style="fill-rule:nonzero;"/>
                <path d="M153.1,97.3L153.1,125.9C161,125.9 167.4,119.5 167.4,111.6C167.4,103.7 161,97.3 153.1,97.3Z" style="fill-rule:nonzero;"/>
                <path d="M147,147.1C150.8,143.3 153.1,138.1 153.1,132.4L132.3,132.4L132.3,153.2C138.1,153.2 143.3,150.9 147,147.1Z" style="fill-rule:nonzero;"/>
                <path d="M147,76.1C143.2,72.3 138,70 132.3,70L132.3,90.8L153.1,90.8C153.1,85.1 150.8,79.9 147,76.1Z" style="fill-rule:nonzero;"/>
            </g>
        </g>
    </g>
</svg>
